<svg width="36" height="26" viewBox="0 0 36 26" fill="none" xmlns="http://www.w3.org/2000/svg">
<path d="M35.2129 10.1071C35.0607 8.7655 33.7903 7.75314 32.4849 7.97068C30.7494 8.25847 29.0944 8.79596 27.5615 9.66357C24.4838 11.4039 22.4851 14.0126 21.3207 17.2859C21.0736 17.9816 20.8616 18.6943 20.7915 19.4748C20.971 19.3715 21.0369 19.2293 21.1249 19.1074C22.4547 17.2382 24.2006 15.6966 26.2278 14.6018C28.3514 13.4548 30.6289 12.9021 33.0406 12.8098C34.4042 12.7574 35.3719 11.5156 35.2129 10.1071ZM33.6262 10.5591C33.3834 11.111 32.5824 11.6468 31.9463 11.6747C32.82 10.3661 32.8149 10.5405 31.6522 9.56285C32.1164 9.25812 33.3774 9.8498 33.6185 10.2019C33.7006 10.3213 33.6809 10.4347 33.6262 10.5591Z" fill="#FEFEFE"/>
<path d="M15.1853 19.066C15.1382 18.9368 15.1304 18.8 15.0868 18.6717C14.9155 18.3872 14.9626 18.0529 14.8692 17.7523C14.3928 16.1768 13.6486 14.6924 12.6683 13.3623C10.3919 10.3138 7.28488 8.61099 3.54323 7.97106C2.44789 7.78279 1.2806 8.50462 0.91149 9.54724C0.522681 10.6447 0.962021 11.8799 1.91007 12.4649C2.45046 12.8026 3.04223 12.8026 3.63658 12.8397C7.05279 13.0576 10.0314 14.3121 12.6006 16.5257C13.5427 17.3387 14.3134 18.2985 15.0602 19.2855C15.2418 19.2922 15.2195 19.1588 15.1853 19.066ZM3.5929 10.9402C3.71023 11.1091 3.78303 11.3142 3.94318 11.4586C4.04252 11.527 4.22322 11.6122 4.10247 11.7279C3.98172 11.8435 3.81386 11.7279 3.69225 11.6181C3.18247 11.4374 2.74486 11.1004 2.44361 10.6566C2.28688 10.4396 2.27232 10.2547 2.50098 10.0766C3.04223 9.65446 3.64429 9.42483 4.41848 9.49912C4.15556 9.72791 3.9466 9.92123 3.72308 10.1027C3.41648 10.3476 3.37023 10.616 3.5929 10.9402Z" fill="#FEFEFE"/>
<path d="M28.3367 3.75513C27.4546 2.20316 25.2724 2.0001 24.0327 3.38188C22.0043 5.61577 20.6765 8.37091 20.2073 11.3195C19.9914 12.6356 19.9369 13.9635 20.1875 15.3149C20.3767 14.8936 20.5529 14.4724 20.7568 14.0595C22.2522 11.0432 24.4984 8.70174 27.4391 6.98209C28.6753 6.25919 29.0244 4.9684 28.3367 3.75513ZM26.0853 6.52712C26.0206 5.998 26.1424 5.46635 25.789 5.17314C25.4357 4.87994 24.9122 5.04002 24.3515 5.0476C24.9821 4.44181 25.6422 4.20505 26.4084 4.23201C26.4483 4.23055 26.488 4.23687 26.5253 4.2506C26.5626 4.26433 26.5967 4.28519 26.6256 4.31196C26.6545 4.33873 26.6776 4.37087 26.6936 4.40648C26.7095 4.44209 26.718 4.48046 26.7186 4.51932C26.8059 5.24392 26.6132 5.8851 26.0853 6.52965V6.52712Z" fill="#FEFEFE"/>
<path d="M14.4158 7.03932C13.7636 5.67821 12.9056 4.42046 11.8705 3.30821C11.0907 2.47964 10.0988 2.26911 9.02797 2.62168C8.04726 2.94465 7.47721 3.66162 7.34119 4.67113C7.19131 5.78209 7.70679 6.53119 8.67017 7.09682C11.4234 8.70323 13.5572 10.893 15.0144 13.6916C15.2925 14.2259 15.5429 14.7738 15.8054 15.3149L15.892 15.3098C15.9154 15.0452 15.9492 14.7806 15.9605 14.5151C16.0865 11.9369 15.5557 9.3684 14.4158 7.03932ZM10.6221 5.05921C10.2305 5.04483 10.0407 5.24268 9.99568 5.59947C9.96016 5.87679 9.93503 6.1558 9.89345 6.53795C9.35631 5.90215 9.17785 5.25113 9.25669 4.52655C9.2581 4.4876 9.26753 4.44932 9.2844 4.41399C9.30128 4.37867 9.32526 4.34701 9.35492 4.3209C9.38458 4.29479 9.41932 4.27477 9.45706 4.26202C9.4948 4.24928 9.53479 4.24407 9.57464 4.2467C10.3431 4.22387 11.0058 4.45553 11.6339 5.0609C11.2285 5.0609 10.9261 5.0702 10.6221 5.05921Z" fill="#FEFEFE"/>
<path d="M34.5725 16.1325C33.5137 15.7685 32.4189 15.8692 31.3541 16.0134C27.4652 16.5402 24.4594 18.5775 21.9465 21.4175C21.9714 21.6272 22.1034 21.5417 22.2157 21.5123C22.3675 21.3093 22.6238 21.3446 22.827 21.2607C25.8783 19.9724 29.0461 19.6167 32.3237 20.1317C33.0739 20.25 33.8146 20.4907 34.5905 20.1711C35.0054 20.0009 35.3601 19.7153 35.6106 19.3497C35.8612 18.9841 35.9966 18.5547 36 18.1145C36.0025 17.6799 35.8664 17.2553 35.6105 16.9C35.3546 16.5447 34.9917 16.2764 34.5725 16.1325ZM34.3342 18.5809C33.7555 19.0128 33.109 19.168 32.2868 19.059C33.5994 18.1481 33.5274 18.3141 32.8098 17.0569C33.3362 17.0141 34.1627 17.7002 34.4182 18.2462C34.4504 18.3019 34.4598 18.3675 34.4443 18.4296C34.4289 18.4918 34.3898 18.5459 34.335 18.5809H34.3342Z" fill="#FEFEFE"/>
<path d="M11.0356 18.6053C8.36503 16.663 5.41233 15.6345 2.05312 15.9334C1.5522 15.979 1.08078 16.1869 0.712698 16.5245C0.349976 16.847 0.108987 17.281 0.029081 17.7557C-0.0508249 18.2304 0.0350737 18.7177 0.272751 19.1382C0.780448 20.0603 1.85245 20.4969 2.93645 20.2604C4.89006 19.8331 6.86339 19.7909 8.84358 20.0502C10.5742 20.2765 12.2191 20.7941 13.8031 21.5077C13.9034 21.544 14.0166 21.62 14.0535 21.4368C13.1784 20.3664 12.1636 19.4143 11.0356 18.6053ZM1.68779 18.5605C1.5094 18.4288 1.55143 18.2751 1.65006 18.1164C2.00596 17.5438 2.50766 17.1587 3.26062 16.9485C3.02736 17.4019 2.60285 17.7363 2.71519 18.1772C2.81982 18.585 3.31551 18.7244 3.7383 19.0394C2.90729 19.1534 2.26581 18.9887 1.68779 18.5605Z" fill="#FEFEFE"/>
<path d="M20.021 23.0132C20.0153 23.689 19.7533 24.3384 19.2861 24.8353C18.8189 25.3321 18.1798 25.6408 17.4933 25.7012C16.7918 25.7677 16.0905 25.5736 15.5281 25.1574C14.9656 24.7412 14.583 24.1332 14.456 23.4536C14.4035 23.158 14.456 22.9952 14.8056 22.9155C16.0869 22.6251 16.9033 21.6131 16.9033 20.3321C16.9129 18.3939 16.9033 16.4556 16.9085 14.5165C16.9085 13.0907 17.433 12.3264 18.7973 11.766C19.1242 11.6872 19.1469 11.6992 19.1469 11.9374C18.196 12.7463 18.3795 13.8139 18.4958 14.8404C18.6942 16.5979 19.195 18.2996 19.5901 20.0193C19.82 21.0004 20.0332 21.991 20.021 23.0132Z" fill="#FEFEFE"/>
<path d="M18.0001 4.1885e-05C16.4959 0.00863694 15.347 1.51621 15.6393 3.12177C15.8862 4.47291 16.3624 5.75529 16.8151 7.04025C17.1712 8.03985 17.5592 9.02742 17.9329 10.021H18.058C18.3251 9.31965 18.598 8.62174 18.8567 7.9178C19.4202 6.38445 19.998 4.85367 20.3399 3.24811C20.7018 1.58325 19.5412 -0.00941267 18.0001 4.1885e-05ZM18.3998 2.65849C18.121 2.40064 17.8548 2.42642 17.5869 2.66794C17.3794 2.85446 17.1737 3.04269 16.8923 3.29882C16.8929 2.9237 16.9773 2.55368 17.1392 2.21713C17.3011 1.88057 17.5361 1.58642 17.8262 1.3572C17.8511 1.33174 17.8808 1.31171 17.9134 1.29831C17.946 1.2849 17.981 1.27841 18.0161 1.27921C18.0513 1.28001 18.0859 1.2881 18.118 1.30298C18.15 1.31786 18.1787 1.33923 18.2025 1.3658C18.7408 1.85829 19.0927 2.44533 19.112 3.28507C18.8416 3.04784 18.6148 2.86047 18.3998 2.65849Z" fill="#FEFEFE"/>
<path d="M18.2884 11.4316C18.2961 11.614 18.1778 11.6791 18.0235 11.7227C17.8577 11.6975 17.7141 11.6402 17.7122 11.4374C17.709 11.4012 17.7135 11.3647 17.7255 11.3303C17.7374 11.296 17.7564 11.2645 17.7813 11.238C17.8062 11.2116 17.8364 11.1906 17.87 11.1767C17.9035 11.1627 17.9397 11.1559 17.976 11.1569C18.1584 11.1433 18.2806 11.2297 18.2884 11.4316Z" fill="#FEFEFE"/>
<path d="M18.7845 11.5338C18.6117 11.508 18.4787 11.4258 18.4816 11.2376C18.4799 11.2016 18.4859 11.1657 18.4991 11.1322C18.5124 11.0986 18.5325 11.0681 18.5584 11.0427C18.5842 11.0173 18.6152 10.9974 18.6493 10.9844C18.6833 10.9714 18.7198 10.9655 18.7563 10.9671C18.9223 10.9595 19.0417 11.0283 19.0573 11.2012C19.0728 11.3742 18.9738 11.4956 18.7845 11.5338Z" fill="#FEFEFE"/>
<path d="M17.5179 11.836C17.508 12.0285 17.4252 12.0826 17.3193 12.1007C17.2015 12.0515 17.1208 11.9583 17.1354 11.7518C17.1499 11.5452 17.2525 11.5262 17.3564 11.5352C17.4749 11.5452 17.5258 11.6515 17.5179 11.836Z" fill="#FEFEFE"/>
<path d="M14.4385 21.7436C14.1686 21.6914 14.0007 21.6111 13.861 21.4467L14.0955 21.3655C14.2473 21.4013 14.2923 21.5618 14.4385 21.7436Z" fill="#FEFEFE"/>
<path d="M22.1389 21.4672C21.9894 21.6158 21.7978 21.6743 21.5614 21.7436C21.6095 21.5846 21.7153 21.4496 21.8578 21.3655L22.1389 21.4672Z" fill="#FEFEFE"/>
<path d="M15.3202 19.4737C15.2765 19.4688 15.2451 19.3732 15.2085 19.3189C15.3568 19.1245 15.1553 18.9153 15.2364 18.7185C15.3743 18.903 15.3734 19.1204 15.3961 19.3312C15.4013 19.3905 15.4205 19.4861 15.3202 19.4737Z" fill="#FEFEFE"/>
<path d="M19.0586 11.9115C19.0476 11.6955 18.9351 11.8009 18.8663 11.7599C19.048 11.6917 19.061 11.7024 19.0586 11.9115Z" fill="#FEFEFE"/>
<path d="M4.00841 11.6948C3.90957 11.7616 3.76168 11.6948 3.65771 11.6291C3.7485 11.6174 3.87736 11.6473 3.87224 11.5334C3.95716 11.5744 4.11164 11.6255 4.00841 11.6948Z" fill="#FEFEFE"/>
</svg>
