<svg xmlns="http://www.w3.org/2000/svg" width="183.184" height="36.753" viewBox="0 0 183.184 36.753"><defs><style>.a{fill:#fb6c00;}</style></defs><g transform="translate(-386.036 -108.016)"><g transform="translate(451.442 119.358)"><path class="a" d="M65.137,19.948V4.957h3.439v14.99Z" transform="translate(18.017 -4.951)"/><path class="a" d="M57.075,4.957h3.7l4.7,11.17,4.808-11.17h3.5l-6.528,14.99H63.865Z" transform="translate(8.489 -4.951)"/><path class="a" d="M58.716,4.957c.159.014.315.021.467.021s.309.007.468.021a8.3,8.3,0,0,1,1.753.272,3.43,3.43,0,0,1,1.511.856A3.487,3.487,0,0,1,63.8,7.4a5.216,5.216,0,0,1,.36,1.5c0,.1,0,.195.011.292s.011.195.011.292a4.576,4.576,0,0,1-.751,2.7,3.785,3.785,0,0,1-2.4,1.514l3.894,6.242h-3.7L57.779,14.06H53.907v5.888H50.621V4.957ZM57.933,7.63H53.907v3.779h4.026a.2.2,0,0,0,.087.021h.087a5.706,5.706,0,0,0,1.9-.3q.859-.3.837-1.6,0-1.336-.9-1.608a6.99,6.99,0,0,0-2.013-.272Z" transform="translate(0.551 -4.951)"/><path class="a" d="M43.592,9.238a6.232,6.232,0,0,1,1.595-2.57,6.045,6.045,0,0,1,2.763-1.41q.625-.14,1.292-.22a11.216,11.216,0,0,1,1.333-.08,10.465,10.465,0,0,1,1.437.06,9.253,9.253,0,0,1,1.4.26,5.911,5.911,0,0,1,2.73,1.4A5.914,5.914,0,0,1,57.7,9.258a11.49,11.49,0,0,1,.438,3.12,13.425,13.425,0,0,1-.1,1.68,9.233,9.233,0,0,1-.334,1.56,5.744,5.744,0,0,1-1.584,2.61,5.967,5.967,0,0,1-2.792,1.37,10.206,10.206,0,0,1-1.376.23q-.709.07-1.439.071a10.547,10.547,0,0,1-1.292-.08q-.645-.08-1.27-.22a5.944,5.944,0,0,1-2.772-1.37,5.733,5.733,0,0,1-1.584-2.61,10.342,10.342,0,0,1-.323-1.52,11.967,11.967,0,0,1-.115-1.66,13.2,13.2,0,0,1,.1-1.67,7.685,7.685,0,0,1,.334-1.51v-.02Zm3.253,1.02a7.222,7.222,0,0,0-.208,1.09,9.341,9.341,0,0,0-.063,1.09,8.362,8.362,0,0,0,.072,1.11,10.259,10.259,0,0,0,.2,1.07,4.21,4.21,0,0,0,.761,1.6,3.053,3.053,0,0,0,1.489,1,4.419,4.419,0,0,0,.752.18,5.25,5.25,0,0,0,1.583,0,4.413,4.413,0,0,0,.752-.18,3.12,3.12,0,0,0,1.5-1,3.917,3.917,0,0,0,.75-1.6,10.261,10.261,0,0,0,.2-1.07,8.6,8.6,0,0,0,.072-1.11,8.456,8.456,0,0,0-.072-1.09,10.321,10.321,0,0,0-.2-1.07,4,4,0,0,0-.75-1.61,2.979,2.979,0,0,0-1.5-.99,4.419,4.419,0,0,0-.752-.18,5.26,5.26,0,0,0-1.583,0,4.425,4.425,0,0,0-.752.18,3,3,0,0,0-1.478,1,4.574,4.574,0,0,0-.771,1.6Z" transform="translate(-9.574 -4.954)"/><path class="a" d="M36.107,9.238A6.216,6.216,0,0,1,37.7,6.668a6.039,6.039,0,0,1,2.761-1.41q.625-.14,1.292-.22a11.217,11.217,0,0,1,1.333-.08,10.491,10.491,0,0,1,1.439.06,9.2,9.2,0,0,1,1.4.26,5.9,5.9,0,0,1,2.73,1.4,5.914,5.914,0,0,1,1.564,2.58,11.33,11.33,0,0,1,.323,1.52,11.468,11.468,0,0,1,.115,1.6,13.126,13.126,0,0,1-.106,1.68,9.232,9.232,0,0,1-.332,1.56,5.744,5.744,0,0,1-1.584,2.61A5.973,5.973,0,0,1,45.84,19.6a10.121,10.121,0,0,1-1.376.23q-.707.07-1.437.071a10.528,10.528,0,0,1-1.292-.08c-.432-.053-.854-.126-1.272-.22a5.96,5.96,0,0,1-2.772-1.37,5.744,5.744,0,0,1-1.584-2.61,10.313,10.313,0,0,1-.323-1.52,11.933,11.933,0,0,1-.115-1.66,13.5,13.5,0,0,1,.1-1.67,7.8,7.8,0,0,1,.334-1.51Zm3.251,1.02a7.222,7.222,0,0,0-.208,1.09,9.707,9.707,0,0,0-.063,1.09,8.362,8.362,0,0,0,.073,1.11,10.264,10.264,0,0,0,.2,1.07,4.234,4.234,0,0,0,.761,1.6,3.058,3.058,0,0,0,1.491,1,4.363,4.363,0,0,0,.75.18,5.26,5.26,0,0,0,1.584,0,4.4,4.4,0,0,0,.75-.18,3.124,3.124,0,0,0,1.5-1,3.917,3.917,0,0,0,.75-1.6,10.7,10.7,0,0,0,.2-1.07,8.4,8.4,0,0,0,.073-1.11,8.259,8.259,0,0,0-.073-1.09,10.319,10.319,0,0,0-.2-1.07,4,4,0,0,0-.75-1.61,2.977,2.977,0,0,0-1.5-.99,4.406,4.406,0,0,0-.75-.18,5.266,5.266,0,0,0-.793-.06,5.319,5.319,0,0,0-.791.06,4.37,4.37,0,0,0-.75.18,3,3,0,0,0-1.48,1,4.574,4.574,0,0,0-.771,1.6Z" transform="translate(-19.678 -4.954)"/><path class="a" d="M35.877,4.957a.074.074,0,0,0,.054.021h.881a8.266,8.266,0,0,1,.826.042,9.567,9.567,0,0,1,1.469.2,4.823,4.823,0,0,1,1.36.512A3.7,3.7,0,0,1,42.111,7.5a6.136,6.136,0,0,1,.511,2.359,5.433,5.433,0,0,1-.4,2.171,3.881,3.881,0,0,1-1.4,1.733,4.641,4.641,0,0,1-1.8.741,14.1,14.1,0,0,1-1.969.219H36.007l-3.982-.021v5.241H28.74V4.957ZM35.834,7.63H32.026v4.426h4a4.458,4.458,0,0,0,2.067-.449,1.775,1.775,0,0,0,.87-1.744q.044-1.44-.925-1.827a5.927,5.927,0,0,0-2.209-.387Z" transform="translate(-28.74 -4.951)"/><path class="a" d="M70.93,4.961v7.174l6.133-7.174h3.921l-6.24,7.3,6.306,7.631H76.867L70.93,12.467v7.424H67.657V4.961Z" transform="translate(21.893 -4.946)"/><path class="a" d="M82.061,4.961H78.594L73.258,17.09,75.5,19.809l1.355-3.474h6.762l1.43,3.556h3.641Zm-4.139,8.713L80.2,7.934l2.362,5.739Z" transform="translate(29.085 -4.946)"/></g><path class="a" d="M16.046,7.287c-1.764.2-3.544,1.66-3.545,3.439,0,1.7,0,7.661,0,8.978A3.86,3.86,0,0,1,8.992,23.5c0,.008,0,.014,0,.022a3.921,3.921,0,0,0,7.841,0c0-3.948-2.265-8.766-2.265-13.755A3.88,3.88,0,0,1,16.046,7.287Z" transform="translate(397.629 117.412)"/><path class="a" d="M10.975,7.969a.36.36,0,1,0-.368-.36A.364.364,0,0,0,10.975,7.969Z" transform="translate(399.712 117.362)"/><path class="a" d="M11.4,7.728a.36.36,0,1,0-.368-.36A.364.364,0,0,0,11.4,7.728Z" transform="translate(400.264 117.051)"/><path class="a" d="M11.843,7.55a.36.36,0,1,0-.368-.36A.364.364,0,0,0,11.843,7.55Z" transform="translate(400.832 116.821)"/><path class="a" d="M0,13.125a3.259,3.259,0,0,0,3.317,3.2,3.434,3.434,0,0,0,.724-.076,24.54,24.54,0,0,1,5.225-.56A24.132,24.132,0,0,1,20.7,18.542c-1.016-1.029-7.146-9.229-17.387-8.617A3.261,3.261,0,0,0,0,13.125Zm2.252.189A3.686,3.686,0,0,1,4.791,11.4l0,.013a4.117,4.117,0,0,0-.971,1.608.351.351,0,0,0,.079.351,4.222,4.222,0,0,0,1.571,1.061l0,.013a3.761,3.761,0,0,1-3.123-.693A.35.35,0,0,1,2.252,13.314Z" transform="translate(386.036 120.772)"/><path class="a" d="M3.358,11.959A3.413,3.413,0,0,0,3.809,12a21.369,21.369,0,0,1,2.888.252,21.393,21.393,0,0,1,14.544,9.57A19.915,19.915,0,0,0,4.529,5.011,3.512,3.512,0,0,0,.524,7.923,3.477,3.477,0,0,0,3.358,11.959ZM2.8,8.179A3.687,3.687,0,0,1,5.873,7.2l0,.013a4.335,4.335,0,0,0-1.5,1.239.387.387,0,0,0-.056.375A4.291,4.291,0,0,0,5.392,10.44l0,.013A3.654,3.654,0,0,1,2.726,8.649.385.385,0,0,1,2.8,8.179Z" transform="translate(386.647 114.419)"/><path class="a" d="M4.681,4.363A3.2,3.2,0,0,0,6.262,7.976,23.7,23.7,0,0,1,16.7,20.358,22.549,22.549,0,0,0,11.124,2.748a3.738,3.738,0,0,0-2.16-1.225A3.645,3.645,0,0,0,4.681,4.363Zm3.042-.351a3.921,3.921,0,0,1,3.088,1.272l-.01.009a4.506,4.506,0,0,0-2-.034.378.378,0,0,0-.285.252,4.228,4.228,0,0,0-.175,1.946l-.01.009a3.734,3.734,0,0,1-.969-3.139A.378.378,0,0,1,7.723,4.012Z" transform="translate(391.969 109.899)"/><path class="a" d="M13.16,0a3.649,3.649,0,0,0-3.5,3.888c0,2.047,3.5,10.54,3.5,10.54s3.5-8.493,3.5-10.54A3.65,3.65,0,0,0,13.16,0Zm1.656,4.873a4.386,4.386,0,0,0-1.464-1.336.389.389,0,0,0-.385,0A4.393,4.393,0,0,0,11.5,4.873h-.014A3.776,3.776,0,0,1,12.918,1.9a.388.388,0,0,1,.483,0A3.775,3.775,0,0,1,14.83,4.873Z" transform="translate(398.49 108.016)"/><path class="a" d="M20.311,1.524A3.738,3.738,0,0,0,18.15,2.748a22.549,22.549,0,0,0-5.571,17.609A23.7,23.7,0,0,1,23.013,7.976a3.2,3.2,0,0,0,1.581-3.613A3.645,3.645,0,0,0,20.311,1.524Zm1.6,2.8a3.735,3.735,0,0,1-.97,3.139l-.01-.009a4.229,4.229,0,0,0-.174-1.946.378.378,0,0,0-.285-.251,4.506,4.506,0,0,0-2,.034l-.01-.009a3.921,3.921,0,0,1,3.088-1.272A.377.377,0,0,1,21.909,4.327Z" transform="translate(402.056 109.899)"/><path class="a" d="M33.549,7.923a3.512,3.512,0,0,0-4.005-2.911A19.914,19.914,0,0,0,12.831,21.824,21.061,21.061,0,0,1,30.263,12a3.412,3.412,0,0,0,.451-.044A3.477,3.477,0,0,0,33.549,7.923Zm-2.2.726a3.651,3.651,0,0,1-2.664,1.805l0-.013A4.284,4.284,0,0,0,29.758,8.83a.386.386,0,0,0-.056-.375,4.34,4.34,0,0,0-1.5-1.239l0-.013a3.686,3.686,0,0,1,3.077.976A.384.384,0,0,1,31.346,8.649Z" transform="translate(402.58 114.419)"/><path class="a" d="M30.72,9.926c-10.241-.612-16.372,7.588-17.387,8.616a24.133,24.133,0,0,1,11.438-2.855,24.553,24.553,0,0,1,5.225.56,3.435,3.435,0,0,0,.724.076,3.2,3.2,0,1,0,0-6.4Zm.966,3.829a3.76,3.76,0,0,1-3.123.693l0-.012a4.221,4.221,0,0,0,1.571-1.061.351.351,0,0,0,.079-.351,4.11,4.11,0,0,0-.971-1.608l0-.013a3.686,3.686,0,0,1,2.538,1.912A.352.352,0,0,1,31.685,13.754Z" transform="translate(403.227 120.772)"/></g></svg>