<svg width="151" height="23" viewBox="0 0 151 23" fill="none" xmlns="http://www.w3.org/2000/svg">
<path d="M29.3437 8.70305C29.2169 7.54774 28.1582 6.67598 27.0703 6.86331C25.6241 7.11113 24.2448 7.57398 22.9674 8.3211C20.4027 9.81972 18.737 12.0662 17.7667 14.8848C17.5608 15.484 17.3841 16.0977 17.3257 16.7698C17.4753 16.6808 17.5302 16.5584 17.6035 16.4534C18.7117 14.8438 20.1667 13.5163 21.856 12.5735C23.6257 11.5858 25.5236 11.1099 27.5334 11.0304C28.6698 10.9852 29.4762 9.91594 29.3437 8.70305ZM28.0214 9.09228C27.8191 9.56752 27.1516 10.0289 26.6215 10.053C27.3496 8.92609 27.3453 9.07624 26.3764 8.23436C26.7633 7.97196 27.8141 8.48146 28.015 8.78469C28.0834 8.88746 28.067 8.98513 28.0214 9.09228Z" fill="#FEFEFE"/>
<path d="M12.6554 16.4177C12.6161 16.3065 12.6097 16.1887 12.5733 16.0782C12.4306 15.8332 12.4698 15.5453 12.392 15.2865C11.995 13.9298 11.3748 12.6515 10.5578 11.5062C8.66087 8.88103 6.07162 7.41469 2.95352 6.86363C2.04072 6.70152 1.06797 7.32309 0.76037 8.22093C0.436357 9.16601 0.80248 10.2296 1.59253 10.7334C2.04287 11.0242 2.53602 11.0242 3.03131 11.0562C5.8782 11.2437 8.36041 12.324 10.5015 14.2302C11.2865 14.9303 11.9288 15.7569 12.5512 16.6067C12.7025 16.6126 12.6839 16.4977 12.6554 16.4177ZM2.99491 9.42046C3.09269 9.56586 3.15336 9.74251 3.28682 9.86683C3.36961 9.92571 3.52019 9.99914 3.41956 10.0987C3.31893 10.1983 3.17905 10.0987 3.0777 10.0042C2.65288 9.84861 2.2882 9.5584 2.03715 9.17619C1.90655 8.98935 1.89441 8.83014 2.08497 8.67675C2.53602 8.31325 3.03774 8.11551 3.68291 8.17949C3.46381 8.3765 3.28967 8.54298 3.1034 8.69928C2.8479 8.91011 2.80936 9.14129 2.99491 9.42046Z" fill="#FEFEFE"/>
<path d="M23.6136 3.23341C22.8786 1.89696 21.06 1.72211 20.0269 2.91199C18.3365 4.83565 17.2301 7.20816 16.8391 9.74731C16.6591 10.8806 16.6137 12.024 16.8225 13.1878C16.9802 12.825 17.127 12.4623 17.2969 12.1068C18.5431 9.50933 20.415 7.49305 22.8656 6.01222C23.8958 5.38971 24.1867 4.27818 23.6136 3.23341ZM21.7375 5.62043C21.6835 5.1648 21.785 4.70698 21.4906 4.45449C21.1961 4.202 20.7598 4.33986 20.2926 4.34639C20.8181 3.82472 21.3682 3.62084 22.0067 3.64406C22.0399 3.6428 22.073 3.64824 22.1041 3.66006C22.1352 3.67189 22.1636 3.68986 22.1877 3.71291C22.2118 3.73596 22.231 3.76363 22.2443 3.7943C22.2577 3.82496 22.2647 3.858 22.2652 3.89147C22.3379 4.51544 22.1774 5.06757 21.7375 5.62261V5.62043Z" fill="#FEFEFE"/>
<path d="M12.0127 6.06151C11.4692 4.88942 10.7542 3.80634 9.89152 2.84855C9.24175 2.13505 8.41509 1.95376 7.52274 2.25736C6.70547 2.53548 6.23042 3.15288 6.11707 4.02219C5.99217 4.97887 6.42174 5.62394 7.22457 6.11101C9.51898 7.49434 11.2972 9.38003 12.5115 11.7899C12.7433 12.2501 12.9519 12.7219 13.1707 13.1878L13.2429 13.1834C13.2624 12.9556 13.2905 12.7277 13.2999 12.4991C13.4049 10.2789 12.9626 8.06713 12.0127 6.06151ZM8.85116 4.35638C8.52483 4.344 8.36672 4.51437 8.32918 4.82161C8.29958 5.06042 8.27864 5.30068 8.24399 5.62976C7.79637 5.08226 7.64764 4.52165 7.71334 3.8977C7.71452 3.86415 7.72238 3.83119 7.73644 3.80077C7.7505 3.77035 7.77049 3.74308 7.79521 3.7206C7.81992 3.69812 7.84887 3.68088 7.88032 3.6699C7.91178 3.65893 7.9451 3.65444 7.97831 3.65671C8.61869 3.63705 9.171 3.83654 9.69443 4.35783C9.35655 4.35783 9.10457 4.36584 8.85116 4.35638Z" fill="#FEFEFE"/>
<path d="M28.8104 13.8922C27.928 13.5788 27.0157 13.6654 26.1283 13.7897C22.8875 14.2433 20.3826 15.9976 18.2886 18.4433C18.3093 18.6238 18.4193 18.5502 18.5129 18.5249C18.6394 18.3501 18.853 18.3804 19.0223 18.3082C21.5651 17.1988 24.205 16.8925 26.9364 17.336C27.5615 17.4379 28.1788 17.6452 28.8254 17.37C29.1711 17.2234 29.4667 16.9774 29.6755 16.6626C29.8843 16.3478 29.9971 15.978 30 15.599C30.0021 15.2247 29.8886 14.8591 29.6754 14.5531C29.4621 14.2472 29.1597 14.0161 28.8104 13.8922ZM28.6118 16.0005C28.1295 16.3725 27.5908 16.5061 26.9056 16.4122C27.9995 15.6278 27.9395 15.7709 27.3415 14.6882C27.7801 14.6513 28.4689 15.2422 28.6818 15.7124C28.7086 15.7603 28.7164 15.8168 28.7036 15.8703C28.6907 15.9238 28.6581 15.9704 28.6125 16.0005H28.6118Z" fill="#FEFEFE"/>
<path d="M9.19647 16.0216C6.97097 14.349 4.51035 13.4633 1.71096 13.7208C1.29352 13.76 0.900669 13.939 0.593925 14.2298C0.291652 14.5074 0.0908238 14.8812 0.0242345 15.2899C-0.0423547 15.6987 0.0292285 16.1184 0.227296 16.4804C0.650384 17.2745 1.54373 17.6505 2.44708 17.4469C4.07511 17.0789 5.71958 17.0425 7.36977 17.2658C8.81198 17.4607 10.1827 17.9064 11.5027 18.5209C11.5863 18.5522 11.6807 18.6176 11.7114 18.4598C10.9821 17.5381 10.1365 16.7182 9.19647 16.0216ZM1.40651 15.983C1.25786 15.8696 1.29288 15.7372 1.37507 15.6005C1.67166 15.1075 2.08975 14.7759 2.71723 14.5948C2.52284 14.9853 2.16908 15.2733 2.2627 15.6529C2.34989 16.0041 2.76297 16.1241 3.1153 16.3954C2.42278 16.4935 1.8882 16.3517 1.40651 15.983Z" fill="#FEFEFE"/>
<path d="M16.6858 19.8175C16.681 20.3994 16.4627 20.9587 16.0733 21.3866C15.684 21.8144 15.1514 22.0802 14.5793 22.1322C13.9948 22.1895 13.4103 22.0224 12.9416 21.6639C12.4729 21.3055 12.154 20.7819 12.0482 20.1968C12.0045 19.9422 12.0482 19.802 12.3395 19.7334C13.4073 19.4833 14.0876 18.6118 14.0876 17.5087C14.0956 15.8397 14.0876 14.1706 14.092 12.5008C14.092 11.273 14.529 10.6148 15.666 10.1323C15.9384 10.0644 15.9574 10.0747 15.9574 10.2798C15.1649 10.9764 15.3179 11.8958 15.4147 12.7797C15.5801 14.2931 15.9974 15.7585 16.3267 17.2394C16.5182 18.0843 16.696 18.9372 16.6858 19.8175Z" fill="#FEFEFE"/>
<path d="M15.002 3.60682e-05C13.7485 0.00743748 12.7911 1.30565 13.0346 2.68823C13.2404 3.85173 13.6372 4.95602 14.0145 6.06253C14.3112 6.92331 14.6346 7.77373 14.946 8.62934H15.0503C15.2728 8.02538 15.5003 7.42439 15.7159 6.81821C16.1855 5.4978 16.667 4.17961 16.9518 2.79703C17.2535 1.36337 16.2863 -0.00810548 15.002 3.60682e-05ZM15.3351 2.28929C15.1028 2.06725 14.8809 2.08945 14.6576 2.29743C14.4848 2.45804 14.3133 2.62014 14.0788 2.8407C14.0793 2.51767 14.1497 2.19904 14.2846 1.90922C14.4195 1.61941 14.6153 1.3661 14.8571 1.16872C14.8778 1.1468 14.9025 1.12955 14.9297 1.118C14.957 1.10646 14.9861 1.10087 15.0154 1.10156C15.0447 1.10225 15.0735 1.10921 15.1002 1.12203C15.1269 1.13484 15.1509 1.15325 15.1707 1.17612C15.6193 1.60022 15.9125 2.10574 15.9286 2.82885C15.7033 2.62457 15.5143 2.46322 15.3351 2.28929Z" fill="#FEFEFE"/>
<path d="M15.2408 9.84416C15.2472 10.0013 15.1486 10.0573 15.0201 10.0949C14.8818 10.0732 14.7622 10.0239 14.7606 9.84918C14.7579 9.81798 14.7617 9.78656 14.7717 9.75698C14.7816 9.72739 14.7975 9.70031 14.8182 9.67751C14.839 9.6547 14.8642 9.63669 14.8921 9.62465C14.9201 9.61261 14.9502 9.60681 14.9805 9.60763C15.1324 9.59593 15.2343 9.67032 15.2408 9.84416Z" fill="#FEFEFE"/>
<path d="M15.6545 9.93181C15.5105 9.90959 15.3997 9.83883 15.4021 9.67672C15.4007 9.64577 15.4057 9.61486 15.4167 9.58597C15.4277 9.55709 15.4445 9.53085 15.4661 9.50894C15.4876 9.48702 15.5134 9.46992 15.5418 9.45872C15.5702 9.44751 15.6006 9.44245 15.631 9.44385C15.7694 9.43727 15.8689 9.49651 15.8818 9.64545C15.8948 9.79439 15.8122 9.8989 15.6545 9.93181Z" fill="#FEFEFE"/>
<path d="M14.597 10.1922C14.5888 10.3579 14.5198 10.4046 14.4316 10.4201C14.3334 10.3778 14.2661 10.2975 14.2783 10.1196C14.2904 9.94179 14.3759 9.92539 14.4625 9.93316C14.5612 9.94179 14.6037 10.0333 14.597 10.1922Z" fill="#FEFEFE"/>
<path d="M12.0311 18.7241C11.8062 18.6791 11.6663 18.61 11.5498 18.4684L11.7453 18.3984C11.8718 18.4293 11.9093 18.5675 12.0311 18.7241Z" fill="#FEFEFE"/>
<path d="M18.4486 18.486C18.324 18.614 18.1643 18.6644 17.9673 18.7241C18.0073 18.5872 18.0955 18.4709 18.2143 18.3984L18.4486 18.486Z" fill="#FEFEFE"/>
<path d="M12.7684 16.7695C12.732 16.7652 12.7058 16.683 12.6753 16.6361C12.7989 16.4688 12.631 16.2886 12.6986 16.1191C12.8134 16.278 12.8127 16.4652 12.8316 16.6468C12.836 16.6978 12.852 16.7801 12.7684 16.7695Z" fill="#FEFEFE"/>
<path d="M15.8834 10.2575C15.8742 10.0716 15.7804 10.1623 15.7231 10.127C15.8746 10.0683 15.8854 10.0775 15.8834 10.2575Z" fill="#FEFEFE"/>
<path d="M3.3401 10.0706C3.25774 10.1281 3.13449 10.0706 3.04785 10.014C3.12351 10.004 3.23089 10.0297 3.22662 9.93164C3.2974 9.96693 3.42613 10.0109 3.3401 10.0706Z" fill="#FEFEFE"/>
<path d="M99.3336 18.1254C98.374 16.6115 97.4811 15.0524 96.5416 13.5249C96.1973 12.9683 96.1706 12.6492 96.8992 12.3935C97.8565 12.0563 98.454 11.2847 98.7827 10.3116C99.9244 7.02359 98.303 4.3194 94.8935 4.10895C92.2414 3.94376 89.5627 4.05465 86.9128 4.00034C86.1621 3.98676 86.0799 4.38503 86.0844 4.98696C86.0977 7.13221 86.0844 9.28649 86.0844 11.4249C86.0844 13.6079 86.0844 15.7954 86.0844 17.9874C86.0844 18.397 86.0377 18.7885 86.633 18.8926C88.7919 19.2999 89.2406 18.9582 89.2473 16.7903C89.2473 16.4894 89.2473 16.1884 89.2473 15.8852C89.2473 13.0022 89.2473 13.0203 92.1192 13.0407C92.7123 13.0407 93.0699 13.2104 93.3498 13.7535C93.8784 14.7831 94.618 15.7245 95.009 16.7994C95.702 18.7047 97.008 19.2026 98.785 18.879C98.8219 18.8756 98.8591 18.8756 98.896 18.879C99.529 18.8994 99.74 18.7636 99.3336 18.1254ZM94.6336 10.246C93.6718 10.4723 92.7212 10.3659 91.8905 10.4157C89.1962 10.4157 89.2251 10.4157 89.2251 7.79525C89.2251 6.89008 89.5183 6.59815 90.3801 6.6502C91.7772 6.73393 93.181 6.56875 94.5781 6.8584C95.531 7.05753 95.8508 7.62777 95.853 8.53293C95.8552 9.4381 95.6065 10.0219 94.6336 10.246Z" fill="#FDFDFB"/>
<path d="M83.7047 11.6525C83.7047 7.23961 81.9806 4.79312 78.6273 4.18207C77.1788 3.92542 75.6978 3.94022 74.2542 4.22574C73.0727 4.44169 71.9876 5.04189 71.1546 5.94006C70.3216 6.83822 69.7837 7.98809 69.6183 9.22438C69.4178 10.6217 69.4059 12.0413 69.583 13.442C69.9782 16.4099 71.5102 18.266 74.3315 18.8128C76.1019 19.1867 77.9335 19.1015 79.6649 18.5647C81.5899 17.949 82.7422 16.6006 83.3051 14.6411C83.5984 13.6753 83.7335 12.6649 83.7047 11.6525ZM79.9276 14.3907C79.3625 15.962 78.1262 16.5386 76.6339 16.5707C75.1416 16.6029 73.848 16.0676 73.2431 14.5377C72.5289 12.7992 72.4667 10.8452 73.0687 9.06129C73.6758 7.22355 74.678 6.53439 76.539 6.5206C78.6958 6.50682 79.9364 7.6692 80.2543 9.88826C80.475 11.4228 80.4441 12.9297 79.9276 14.3907Z" fill="#FCFCFB"/>
<path d="M66.7123 8.61617C66.145 6.40129 64.8391 4.96597 62.7154 4.36755C61.5116 4.03236 60.2599 3.92519 59.0197 4.05113C55.722 4.36984 53.7126 5.96795 53.1146 8.85004C52.7398 10.6063 52.7398 12.4269 53.1146 14.1831C53.3 15.117 53.6872 15.9945 54.2468 16.7488C55.7594 18.7321 57.8809 18.9522 60.0992 19.0417C60.6158 18.9981 61.1655 18.9866 61.7063 18.9041C64.1466 18.5304 65.9472 17.2991 66.6485 14.7151C67.206 12.7267 67.228 10.6167 66.7123 8.61617ZM63.4387 14.0135C62.9308 15.6987 61.7173 16.5861 59.9783 16.5861C58.1359 16.5861 56.9729 15.7262 56.4607 13.9562C55.9417 12.314 55.9664 10.5376 56.531 8.91193C57.1334 7.19459 58.2745 6.45631 60.2069 6.53656C61.9283 6.60993 63.065 7.49495 63.4871 9.16872C63.6281 9.81816 63.7367 10.4748 63.8124 11.136C63.8341 12.1097 63.708 13.0809 63.4387 14.0135Z" fill="#FCFCFB"/>
<path d="M46.2412 4.16866C43.4525 3.86476 40.648 4.07956 37.8526 4.00644C37.0937 3.98816 37.0106 4.39488 37.0151 5.0004C37.0286 7.16429 37.0151 9.32819 37.0151 11.4921C37.0151 13.2378 36.9837 14.9835 37.0151 16.7293C37.0712 19.4255 36.4695 18.98 39.4513 19.0417C40.0283 19.0417 40.2506 18.8337 40.2349 18.2419C40.2057 17.0994 40.2686 15.9569 40.2124 14.8144C40.1743 14.0033 40.4841 13.7771 41.2498 13.7908C42.9271 13.8227 44.6178 13.9233 46.2816 13.7154C49.0209 13.3703 50.4871 11.6589 50.4579 8.91688C50.4287 6.06521 49.0366 4.47028 46.2412 4.16866ZM45.6888 10.8523C44.7323 11.2156 43.7691 11.0511 42.936 11.1196C40.2237 11.1196 40.2237 11.1196 40.2259 8.51701C40.2417 8.28879 40.2417 8.05973 40.2259 7.83151C40.0979 6.91751 40.4909 6.62504 41.3621 6.68902C42.7362 6.77585 44.1193 6.61361 45.489 6.94493C46.4388 7.17343 46.8901 7.74009 46.9238 8.69522C46.9574 9.65034 46.7307 10.4547 45.6888 10.8523Z" fill="#FDFCFB"/>
<path d="M136.49 18.7648C136.358 19.0636 136.049 18.9131 135.802 18.9473C135.732 18.9473 135.654 18.9473 135.582 18.9473C133.597 19.3214 132.226 18.58 131.132 16.7823C130.094 15.0691 128.736 13.5635 127.508 11.953C127.102 12.2632 127.245 12.6373 127.243 12.9407C127.225 14.6106 127.212 16.2805 127.243 17.9595C127.256 18.6439 127.097 19.0066 126.332 18.9792C123.713 18.8834 124.128 19.3807 124.106 16.7139C124.077 12.8814 124.13 9.04663 124.083 5.21413C124.083 4.25828 124.364 3.96856 125.272 4.01647C127.389 4.12369 127.225 3.60814 127.239 6.11524C127.239 7.62771 127.239 9.14244 127.239 10.6549C127.801 10.7735 127.922 10.315 128.121 10.0664C129.496 8.39876 130.89 6.73802 132.186 5.00427C132.775 4.21724 133.423 3.92978 134.34 4.01419C135.028 4.07806 135.725 4.02789 136.75 4.02789C134.887 6.34564 133.262 8.42614 131.562 10.4405C131.011 11.0952 130.901 11.4921 131.512 12.213C133.117 14.127 134.62 16.1299 136.142 18.1123C136.307 18.2926 136.624 18.4591 136.49 18.7648Z" fill="#FCFCFA"/>
<path d="M150.806 17.8905C149.112 13.9895 147.356 10.109 145.841 6.1326C145.208 4.46759 144.402 3.81894 142.706 4.04277C141.933 4.14555 141.481 4.27116 141.156 5.09567C139.867 8.35261 138.545 11.6004 137.095 14.782C136.615 15.8372 136.568 16.6092 137.394 17.372C137.824 17.7694 138.058 18.6693 138.594 18.5665C139.203 18.4523 139.219 17.5319 139.385 16.9518C139.695 15.8623 140.182 15.2548 141.377 15.4535C141.989 15.554 142.626 15.4718 143.251 15.4718C143.801 15.5129 144.355 15.5083 144.905 15.458C146.054 15.2685 146.596 15.7755 146.971 16.8787C147.721 19.0941 147.779 19.0348 150.055 19.0416C151.012 19.0462 151.202 18.8018 150.806 17.8905ZM144.639 12.7995C143.687 12.7858 142.735 12.7812 141.783 12.7995C141.231 12.8132 141.032 12.6076 141.245 12.0595C141.836 10.5224 142.431 8.98755 143.144 7.14439C143.893 9.00354 144.524 10.5566 145.137 12.1166C145.33 12.6122 145.122 12.8064 144.639 12.7995Z" fill="#FCFCFB"/>
<path d="M115.647 5.98029C113.919 9.99426 112.17 14.0014 110.494 18.0381C110.189 18.7719 109.79 18.8854 109.076 18.9899C107.289 19.2466 106.442 18.5492 105.767 16.8728C104.148 12.8588 102.274 8.94478 100.496 4.99668C100.176 4.28566 100.296 4.02215 101.15 4.00852C103.676 3.97445 103.689 3.93357 104.65 6.22791C105.681 8.69718 106.678 11.1778 107.7 13.6493C107.855 14.0219 108.064 14.3717 108.382 14.9941C109.846 11.5549 111.259 8.39278 112.524 5.17387C112.91 4.19026 113.433 3.98581 114.371 4.00625C116.483 4.05623 116.48 4.01305 115.647 5.98029Z" fill="#FCFCFB"/>
<path d="M121.704 17.9414C121.719 18.7835 121.453 19.0506 120.681 19.0414C118.544 19.0163 118.542 19.0414 118.542 16.7044C118.542 12.8726 118.564 9.04296 118.542 5.21337C118.542 4.37807 118.666 3.97185 119.542 4.00151C122.037 4.08368 121.663 3.63407 121.698 6.33852C121.721 8.04335 121.698 9.75047 121.698 11.4576C121.692 13.6189 121.665 15.7801 121.704 17.9414Z" fill="#FDFDFA"/>
</svg>
