<svg width="24" height="24" viewBox="0 0 24 24" fill="none" xmlns="http://www.w3.org/2000/svg">
<path d="M6.375 21H5.625V21.75H6.375V21Z" fill="#FF8E33"/>
<path d="M14.25 16.5H7.875V10.875C7.875 10.7755 7.83549 10.6802 7.76517 10.6098C7.69484 10.5395 7.59946 10.5 7.5 10.5H0.75C0.650544 10.5 0.555161 10.5395 0.484835 10.6098C0.414509 10.6802 0.375 10.7755 0.375 10.875V22.875C0.375 22.9745 0.414509 23.0698 0.484835 23.1402C0.555161 23.2105 0.650544 23.25 0.75 23.25H14.25C14.3495 23.25 14.4448 23.2105 14.5152 23.1402C14.5855 23.0698 14.625 22.9745 14.625 22.875V16.875C14.625 16.7755 14.5855 16.6802 14.5152 16.6098C14.4448 16.5395 14.3495 16.5 14.25 16.5ZM10.125 17.25H11.625V18.75H10.125V17.25ZM3.375 11.25H4.875V12.75H3.375V11.25ZM1.125 11.25H2.625V13.125C2.625 13.2245 2.66451 13.3198 2.73484 13.3902C2.80516 13.4605 2.90054 13.5 3 13.5H5.25C5.34946 13.5 5.44484 13.4605 5.51516 13.3902C5.58549 13.3198 5.625 13.2245 5.625 13.125V11.25H7.125V16.5H1.125V11.25ZM3.375 17.25H4.875V18.75H3.375V17.25ZM1.125 17.25H2.625V19.125C2.625 19.2245 2.66451 19.3198 2.73484 19.3902C2.80516 19.4605 2.90054 19.5 3 19.5H5.25C5.34946 19.5 5.44484 19.4605 5.51516 19.3902C5.58549 19.3198 5.625 19.2245 5.625 19.125V17.25H7.125V22.5H1.125V17.25ZM13.875 22.5H7.875V17.25H9.375V19.125C9.375 19.2245 9.41451 19.3198 9.48483 19.3902C9.55516 19.4605 9.65054 19.5 9.75 19.5H12C12.0995 19.5 12.1948 19.4605 12.2652 19.3902C12.3355 19.3198 12.375 19.2245 12.375 19.125V17.25H13.875V22.5Z" fill="#FF8E33"/>
<path d="M13.125 21H12.375V21.75H13.125V21Z" fill="#FF8E33"/>
<path d="M6.375 15H5.625V15.75H6.375V15Z" fill="#FF8E33"/>
<path d="M22.4121 5.23951C22.4409 5.2465 22.4704 5.25003 22.5 5.25001C22.5658 5.24996 22.6303 5.2327 22.6873 5.19993C22.7442 5.16716 22.7916 5.12004 22.8247 5.06326C22.8588 5.00331 22.8761 4.93533 22.875 4.86639V3.37501C22.875 3.29086 22.8467 3.20916 22.7947 3.14305C22.7426 3.07694 22.6698 3.03026 22.588 3.01051L11.713 0.385512C11.6552 0.371496 11.5949 0.371496 11.5371 0.385512L0.662067 3.01051C0.580268 3.03026 0.507486 3.07694 0.455427 3.14305C0.403369 3.20916 0.375059 3.29086 0.375052 3.37501V4.86437C0.37377 4.94289 0.396218 5.01997 0.439458 5.08553C0.482368 5.14863 0.543479 5.19717 0.614657 5.22467C0.685835 5.25218 0.763703 5.25736 0.837896 5.23951L1.50005 5.07972V9.75002H2.25005V4.89869L11.625 2.63575L21 4.89869V22.5H18.75V7.87501C18.75 7.77556 18.7105 7.68018 18.6402 7.60985C18.5699 7.53952 18.4745 7.50001 18.375 7.50001H4.87505C4.77559 7.50001 4.68021 7.53952 4.60989 7.60985C4.53956 7.68018 4.50005 7.77556 4.50005 7.87501V9.37502C4.50005 9.47447 4.53956 9.56985 4.60989 9.64018C4.68021 9.71051 4.77559 9.75002 4.87505 9.75002H18V10.5H8.62505V11.25H18V12H8.62505V12.75H18V13.5H8.62505V14.25H18V22.5H15.375V23.25H22.875V22.5H21.75V5.07972L22.4121 5.23951ZM5.25005 9.00002V8.25001H18V9.00002H5.25005ZM11.625 1.87501C11.5954 1.875 11.5659 1.87852 11.5371 1.88551L1.12505 4.39872V3.67033L11.625 1.13579L22.125 3.67033V4.39876L11.713 1.88551C11.6842 1.87852 11.6547 1.875 11.625 1.87501Z" fill="#FF8E33"/>
<path d="M12.375 6.375C12.6734 6.375 12.9595 6.25647 13.1705 6.0455C13.3815 5.83452 13.5 5.54837 13.5 5.25C13.5 4.95163 13.3815 4.66548 13.1705 4.4545C12.9595 4.24353 12.6734 4.125 12.375 4.125H10.875C10.5766 4.125 10.2905 4.24353 10.0795 4.4545C9.86853 4.66548 9.75 4.95163 9.75 5.25C9.75 5.54837 9.86853 5.83452 10.0795 6.0455C10.2905 6.25647 10.5766 6.375 10.875 6.375H12.375ZM10.5 5.25C10.5001 5.15058 10.5397 5.05526 10.61 4.98496C10.6803 4.91466 10.7756 4.87511 10.875 4.875H12.375C12.4745 4.875 12.5698 4.91451 12.6402 4.98484C12.7105 5.05516 12.75 5.15054 12.75 5.25C12.75 5.34946 12.7105 5.44484 12.6402 5.51517C12.5698 5.58549 12.4745 5.625 12.375 5.625H10.875C10.7756 5.62489 10.6803 5.58534 10.61 5.51504C10.5397 5.44474 10.5001 5.34942 10.5 5.25Z" fill="#FF8E33"/>
</svg>
