<svg width="24" height="24" viewBox="0 0 24 24" fill="none" xmlns="http://www.w3.org/2000/svg">
<path d="M3.60839 19.828H1.05469C0.860859 19.828 0.703125 19.6703 0.703125 19.4764V1.05469C0.703125 0.860812 0.860859 0.703125 1.05469 0.703125H7.38933V5.63845C7.38933 5.88267 7.52264 6.10678 7.73719 6.2234C7.95178 6.34008 8.21236 6.32991 8.41725 6.19701L10.5397 4.82044L12.6622 6.19701C12.7722 6.26831 12.8981 6.30431 13.0244 6.30431C13.1335 6.30431 13.2428 6.2775 13.3423 6.2234C13.5569 6.10683 13.6902 5.88267 13.6902 5.63845V0.703125H20.0248C20.2187 0.703125 20.3764 0.860812 20.3764 1.05469V5.4788C20.3764 5.673 20.5338 5.83036 20.7279 5.83036C20.9221 5.83036 21.0795 5.673 21.0795 5.4788V1.05469C21.0795 0.473156 20.6064 0 20.0248 0H1.05469C0.473109 0 0 0.473156 0 1.05469V19.4764C0 20.058 0.473109 20.5311 1.05469 20.5311H3.60839C3.80255 20.5311 3.95995 20.3737 3.95995 20.1795C3.95995 19.9853 3.80255 19.828 3.60839 19.828ZM12.987 5.56959L10.902 4.2172C10.6819 4.07461 10.3975 4.07456 10.1775 4.21725L8.09245 5.56959V0.703125H12.987V5.56959Z" fill="#FF8E33"/>
<path d="M3.06592 15.1445C2.74281 15.1445 2.47998 15.4074 2.47998 15.7305V17.6813C2.47998 18.0044 2.74281 18.2672 3.06592 18.2672H7.75731C8.08042 18.2672 8.34325 18.0044 8.34325 17.6813V15.7305C8.34325 15.4074 8.08042 15.1445 7.75731 15.1445H3.06592ZM7.64012 17.5641H3.18311V15.8477H7.64012V17.5641Z" fill="#FF8E33"/>
<path d="M21.0744 11.2102C21.0776 11.1912 21.0796 11.1718 21.0796 11.152V7.01074C21.0796 6.81654 20.9222 6.65918 20.728 6.65918C20.5339 6.65918 20.3764 6.81654 20.3764 7.01074V10.7802C19.4139 10.2638 18.3147 9.97043 17.148 9.97043C16.4534 9.97043 15.7679 10.0741 15.1106 10.2785C14.9252 10.3362 14.8216 10.5333 14.8793 10.7187C14.9369 10.904 15.134 11.0078 15.3194 10.9499C15.909 10.7666 16.5243 10.6736 17.148 10.6736C20.5385 10.6736 23.2969 13.432 23.2969 16.8225C23.2969 20.2131 20.5385 22.9715 17.148 22.9715C13.7575 22.9715 10.9991 20.2131 10.9991 16.8225C10.9991 15.7405 11.284 14.6767 11.8228 13.746C12.346 12.8426 13.0959 12.0813 13.9916 11.5444C14.1582 11.4446 14.2122 11.2287 14.1124 11.0622C14.0126 10.8956 13.7967 10.8415 13.6301 10.9414C12.6324 11.5393 11.7971 12.3874 11.2144 13.3937C10.6136 14.4313 10.296 15.617 10.296 16.8225C10.296 17.8999 10.5463 18.9199 10.9913 19.8278H5.14062C4.94647 19.8278 4.78906 19.9851 4.78906 20.1793C4.78906 20.3735 4.94647 20.5309 5.14062 20.5309H11.3888C12.61 22.4209 14.7353 23.6745 17.148 23.6745C20.9262 23.6745 24.0001 20.6007 24.0001 16.8224C24.0001 14.5037 22.8421 12.4506 21.0744 11.2102V11.2102Z" fill="#FF8E33"/>
<path d="M17.3308 12.4365C15.7894 12.4365 14.3845 13.2459 13.5977 14.521L13.4924 14.1726C13.4361 13.9867 13.2399 13.8816 13.0541 13.9378C12.8682 13.994 12.7631 14.1903 12.8193 14.3761L13.1865 15.5904C13.2325 15.7423 13.372 15.8403 13.5229 15.8403C13.5566 15.8403 13.5909 15.8354 13.6247 15.8252L14.8391 15.458C15.025 15.4019 15.1301 15.2057 15.0739 15.0198C15.0177 14.8339 14.8215 14.7288 14.6356 14.785L14.1749 14.9243C14.8313 13.8337 16.0226 13.1396 17.3308 13.1396C18.8964 13.1396 20.294 14.1323 20.8086 15.6098C20.8591 15.7549 20.9951 15.8458 21.1405 15.8458C21.1789 15.8458 21.2179 15.8395 21.2562 15.8261C21.4396 15.7623 21.5364 15.5618 21.4726 15.3785C20.8596 13.6189 19.1952 12.4365 17.3308 12.4365V12.4365Z" fill="#FF8E33"/>
<path d="M16.9656 20.505C15.4001 20.505 14.0024 19.5123 13.4878 18.0349C13.4239 17.8515 13.2235 17.7546 13.0402 17.8185C12.8568 17.8823 12.76 18.0828 12.8238 18.2662C13.4367 20.0259 15.1012 21.2082 16.9656 21.2082C18.5069 21.2082 19.9119 20.3989 20.6987 19.1237L20.804 19.4722C20.8499 19.6241 20.9895 19.7221 21.1404 19.7221C21.1741 19.7221 21.2083 19.7172 21.2422 19.7069C21.4281 19.6508 21.5332 19.4545 21.477 19.2687L21.1099 18.0543C21.0537 17.8685 20.8574 17.7634 20.6716 17.8196L19.4573 18.1867C19.2714 18.2429 19.1663 18.4391 19.2225 18.6249C19.2787 18.8108 19.475 18.9159 19.6608 18.8597L20.1215 18.7205C19.4651 19.8109 18.2737 20.505 16.9656 20.505V20.505Z" fill="#FF8E33"/>
</svg>
