<svg width="24" height="20" viewBox="0 0 24 20" fill="none" xmlns="http://www.w3.org/2000/svg">
<path d="M5.23826 14.7969C5.03979 14.6307 4.74415 14.6568 4.57793 14.8553L3.40582 16.2547L2.98221 15.8958C2.78468 15.7284 2.48895 15.7529 2.32155 15.9504C2.15421 16.148 2.17868 16.4437 2.37621 16.6111L3.15949 17.2747C3.24448 17.3467 3.35196 17.3858 3.46249 17.3858C3.47581 17.3858 3.48912 17.3852 3.50248 17.3841C3.62679 17.3734 3.74178 17.3137 3.82188 17.218L5.29671 15.4573C5.46284 15.2588 5.43668 14.9632 5.23826 14.7969Z" fill="white"/>
<path d="M23.0073 7.56754H22.3336C21.7693 7.54148 21.3155 7.06087 20.7905 6.50474C20.4396 6.13316 20.064 5.73529 19.6114 5.4404V1.43334C19.6114 0.727539 19.0372 0.15332 18.3315 0.15332H3.04205C2.33625 0.15332 1.76208 0.727539 1.76208 1.43334V4.68496C1.76208 4.94385 1.97194 5.15371 2.23083 5.15371C2.48972 5.15371 2.69958 4.94385 2.69958 4.68496V1.43334C2.69958 1.24771 2.85642 1.09082 3.04205 1.09082H8.22919V5.23818C8.22919 5.40857 8.32167 5.56555 8.47069 5.64819C8.54147 5.68743 8.61975 5.70693 8.69789 5.70693C8.78428 5.70693 8.87048 5.68307 8.94637 5.63568L10.6873 4.54757L12.427 5.63563C12.5715 5.72596 12.7536 5.73083 12.9027 5.64824C13.0518 5.56565 13.1443 5.40866 13.1443 5.23823V1.09082H18.3315C18.5171 1.09082 18.674 1.24766 18.674 1.43334V5.04299C18.5215 5.01107 18.3614 4.9919 18.1921 4.9889C18.1894 4.98885 18.1867 4.98885 18.1839 4.98885H16.9964H16.074H15.5428C15.5403 4.98885 15.5379 4.98885 15.5355 4.9889C14.9704 4.99766 14.6801 5.25384 14.536 5.46716C14.3123 5.79829 14.2916 6.24674 14.4774 6.72941C14.5207 6.8421 14.5734 6.94869 14.6342 7.04887H11.0797C10.316 7.04887 9.69469 7.67019 9.69469 8.43388C9.69469 8.59091 9.72094 8.74194 9.76917 8.88276H9.64477C8.88108 8.88276 8.25975 9.50408 8.25975 10.2678C8.25975 11.0316 8.88108 11.6529 9.64477 11.6529H9.76884C9.7208 11.7933 9.69464 11.9439 9.69464 12.1004C9.69464 12.8403 10.2765 13.4466 11.0063 13.4849C10.9577 13.6259 10.9314 13.7771 10.9314 13.9344C10.9314 14.6981 11.5527 15.3194 12.3164 15.3194H18.1239C18.324 15.3194 18.506 15.295 18.6738 15.2531V16.7218C18.6738 16.9082 18.517 17.0656 18.3314 17.0656H7.4737C7.56567 16.7382 7.61592 16.3934 7.61592 16.0369C7.61592 13.9371 5.90766 12.2288 3.80789 12.2288C3.42244 12.2288 3.05034 12.2868 2.69944 12.3938V8.89935C2.69944 8.64046 2.48958 8.4306 2.23069 8.4306C1.9718 8.4306 1.76194 8.64046 1.76194 8.89935V12.8276C0.703641 13.5049 0 14.6899 0 16.037C0 18.1375 1.70827 19.8464 3.80803 19.8464C5.18911 19.8464 6.40069 19.107 7.06838 18.0032H18.3315C19.0373 18.0032 19.6115 17.4284 19.6115 16.7219V14.7919C19.715 14.7179 19.8139 14.6421 19.9099 14.5681C20.3238 14.2491 20.6813 13.9736 21.2505 13.9736H23.0073C23.5547 13.9736 24 13.5289 24 12.9822V8.5603C24 8.01285 23.5547 7.56754 23.0073 7.56754ZM12.2068 4.39213L10.936 3.59727C10.784 3.50226 10.5911 3.50221 10.439 3.59723L9.16669 4.39241V1.09082H12.2068V4.39213ZM3.80803 18.9089C2.2252 18.9089 0.9375 17.6206 0.9375 16.037C0.9375 14.4541 2.2252 13.1663 3.80803 13.1663C5.39086 13.1663 6.67856 14.4541 6.67856 16.037C6.67856 17.6206 5.39086 18.9089 3.80803 18.9089ZM23.0625 12.9822C23.0625 13.0109 23.0367 13.0361 23.0073 13.0361H21.2505C20.3619 13.0361 19.8177 13.4555 19.3376 13.8255C18.9341 14.1364 18.6155 14.382 18.124 14.382H12.3165C12.0698 14.382 11.869 14.1812 11.869 13.9344C11.869 13.6876 12.0698 13.4869 12.3165 13.4869H13.8725C14.1314 13.4869 14.3412 13.277 14.3412 13.0181C14.3412 12.7592 14.1314 12.5494 13.8725 12.5494H11.0798C10.833 12.5494 10.6322 12.348 10.6322 12.1005C10.6322 11.8537 10.833 11.6529 11.0798 11.6529H13.8725C14.1314 11.6529 14.3412 11.4431 14.3412 11.1842C14.3412 10.9253 14.1314 10.7154 13.8725 10.7154H9.64481C9.39806 10.7154 9.1973 10.5147 9.1973 10.2679C9.1973 10.0211 9.39806 9.8203 9.64481 9.8203H13.8725C14.1314 9.8203 14.3412 9.61044 14.3412 9.35155C14.3412 9.09266 14.1314 8.8828 13.8725 8.8828H11.0798C10.833 8.8828 10.6322 8.68143 10.6322 8.43393C10.6322 8.18713 10.833 7.98641 11.0798 7.98641H16.3101H17.3274H18.007C18.2659 7.98641 18.4758 7.77655 18.4758 7.51766C18.4758 7.25877 18.2659 7.04891 18.007 7.04891H17.3274H16.3101C15.8813 7.04891 15.5055 6.79162 15.3525 6.39308C15.2634 6.16143 15.2877 6.02933 15.313 5.99183C15.3384 5.95424 15.4299 5.9286 15.5468 5.9264H16.9964H18.1796C18.97 5.94219 19.5232 6.52813 20.1089 7.14838C20.7216 7.79727 21.355 8.46824 22.3058 8.50471C22.3118 8.50494 22.3178 8.50504 22.3238 8.50504H23.0074C23.0373 8.50504 23.0626 8.53035 23.0626 8.56026V12.9822H23.0625Z" fill="white"/>
<path d="M2.23096 7.26205C2.48985 7.26205 2.69971 7.05088 2.69971 6.79199C2.69971 6.5331 2.48985 6.32324 2.23096 6.32324C1.97207 6.32324 1.76221 6.5331 1.76221 6.79199V6.79466C1.76221 7.05351 1.97207 7.26205 2.23096 7.26205Z" fill="white"/>
</svg>
