<svg width="36" height="26" viewBox="0 0 36 26" fill="none" xmlns="http://www.w3.org/2000/svg">
<path d="M35.2129 10.1071C35.0607 8.76543 33.7903 7.75308 32.4849 7.97061C30.7494 8.25841 29.0944 8.7959 27.5615 9.66351C24.4838 11.4038 22.4851 14.0126 21.3207 17.2858C21.0736 17.9816 20.8616 18.6943 20.7915 19.4747C20.971 19.3714 21.0369 19.2292 21.1249 19.1074C22.4547 17.2381 24.2006 15.6966 26.2278 14.6017C28.3514 13.4548 30.6289 12.902 33.0406 12.8098C34.4042 12.7573 35.3719 11.5155 35.2129 10.1071ZM33.6262 10.5591C33.3834 11.1109 32.5824 11.6467 31.9463 11.6747C32.82 10.3661 32.8149 10.5404 31.6522 9.56279C32.1164 9.25806 33.3774 9.84974 33.6185 10.2019C33.7006 10.3212 33.6809 10.4346 33.6262 10.5591Z" fill="#FF8E33"/>
<path d="M15.1851 19.0659C15.138 18.9367 15.1303 18.8 15.0866 18.6716C14.9154 18.3871 14.9625 18.0528 14.8691 17.7523C14.3927 16.1767 13.6484 14.6923 12.6681 13.3623C10.3918 10.3137 7.28476 8.61092 3.54311 7.971C2.44776 7.78273 1.28048 8.50456 0.911368 9.54718C0.522558 10.6447 0.961899 11.8798 1.90994 12.4648C2.45034 12.8025 3.04211 12.8025 3.63646 12.8397C7.05267 13.0575 10.0313 14.312 12.6005 16.5256C13.5425 17.3386 14.3133 18.2985 15.0601 19.2854C15.2417 19.2921 15.2194 19.1588 15.1851 19.0659ZM3.59278 10.9402C3.71011 11.109 3.78291 11.3142 3.94306 11.4585C4.0424 11.5269 4.2231 11.6122 4.10235 11.7278C3.98159 11.8435 3.81373 11.7278 3.69212 11.6181C3.18234 11.4374 2.74473 11.1004 2.44348 10.6565C2.28676 10.4395 2.2722 10.2546 2.50086 10.0765C3.04211 9.6544 3.64416 9.42477 4.41836 9.49906C4.15544 9.72785 3.94648 9.92117 3.72295 10.1027C3.41636 10.3475 3.37011 10.616 3.59278 10.9402Z" fill="#FF8E33"/>
<path d="M28.3368 3.75519C27.4548 2.20322 25.2725 2.00016 24.0328 3.38194C22.0044 5.61583 20.6766 8.37097 20.2075 11.3196C19.9915 12.6357 19.9371 13.9635 20.1876 15.315C20.3768 14.8937 20.553 14.4724 20.7569 14.0596C22.2523 11.0432 24.4985 8.7018 27.4392 6.98215C28.6755 6.25925 29.0245 4.96846 28.3368 3.75519ZM26.0855 6.52718C26.0207 5.99806 26.1425 5.46641 25.7892 5.1732C25.4358 4.88 24.9123 5.04008 24.3516 5.04767C24.9823 4.44187 25.6423 4.20511 26.4086 4.23207C26.4484 4.23061 26.4881 4.23693 26.5254 4.25066C26.5627 4.26439 26.5968 4.28525 26.6257 4.31202C26.6546 4.33879 26.6777 4.37093 26.6937 4.40654C26.7097 4.44215 26.7182 4.48052 26.7187 4.51939C26.806 5.24398 26.6133 5.88516 26.0855 6.52971V6.52718Z" fill="#FF8E33"/>
<path d="M14.4157 7.03938C13.7635 5.67827 12.9055 4.42052 11.8703 3.30827C11.0906 2.4797 10.0987 2.26917 9.02785 2.62174C8.04714 2.94471 7.47709 3.66168 7.34107 4.67119C7.19119 5.78215 7.70667 6.53125 8.67005 7.09688C11.4233 8.70329 13.5571 10.8931 15.0143 13.6916C15.2924 14.226 15.5428 14.7739 15.8053 15.315L15.8919 15.3099C15.9153 15.0453 15.9491 14.7806 15.9604 14.5151C16.0863 11.9369 15.5556 9.36846 14.4157 7.03938ZM10.6219 5.05927C10.2303 5.04489 10.0406 5.24274 9.99556 5.59953C9.96004 5.87685 9.93491 6.15586 9.89333 6.53801C9.35619 5.90221 9.17773 5.25119 9.25656 4.52661C9.25798 4.48766 9.26741 4.44938 9.28428 4.41405C9.30116 4.37873 9.32514 4.34707 9.3548 4.32096C9.38446 4.29486 9.41919 4.27483 9.45694 4.26209C9.49468 4.24934 9.53467 4.24413 9.57452 4.24676C10.343 4.22393 11.0057 4.45559 11.6338 5.06096C11.2284 5.06096 10.926 5.07026 10.6219 5.05927Z" fill="#FF8E33"/>
<path d="M34.5723 16.1325C33.5135 15.7685 32.4186 15.8691 31.3538 16.0134C27.465 16.5401 24.4591 18.5774 21.9463 21.4175C21.9712 21.6272 22.1032 21.5416 22.2155 21.5122C22.3672 21.3093 22.6236 21.3445 22.8268 21.2606C25.878 19.9723 29.0459 19.6167 32.3235 20.1317C33.0736 20.2499 33.8144 20.4906 34.5903 20.1711C35.0052 20.0008 35.3599 19.7152 35.6104 19.3497C35.8609 18.9841 35.9963 18.5546 35.9997 18.1145C36.0023 17.6798 35.8661 17.2553 35.6102 16.9C35.3543 16.5447 34.9915 16.2764 34.5723 16.1325ZM34.3339 18.5808C33.7552 19.0128 33.1088 19.1679 32.2866 19.0589C33.5992 18.148 33.5272 18.3141 32.8096 17.0568C33.336 17.014 34.1625 17.7001 34.4179 18.2461C34.4502 18.3018 34.4595 18.3674 34.4441 18.4296C34.4286 18.4917 34.3895 18.5458 34.3348 18.5808H34.3339Z" fill="#FF8E33"/>
<path d="M11.0356 18.6052C8.36503 16.663 5.41233 15.6344 2.05312 15.9334C1.5522 15.9789 1.08078 16.1868 0.712698 16.5245C0.349976 16.8469 0.108987 17.2809 0.029081 17.7556C-0.0508249 18.2303 0.0350737 18.7177 0.272751 19.1381C0.780448 20.0602 1.85245 20.4968 2.93645 20.2604C4.89006 19.8331 6.86339 19.7909 8.84358 20.0501C10.5742 20.2764 12.2191 20.7941 13.8031 21.5077C13.9034 21.544 14.0166 21.62 14.0535 21.4367C13.1784 20.3663 12.1636 19.4143 11.0356 18.6052ZM1.68779 18.5605C1.5094 18.4287 1.55143 18.2751 1.65006 18.1163C2.00596 17.5438 2.50766 17.1587 3.26062 16.9484C3.02736 17.4019 2.60285 17.7363 2.71519 18.1771C2.81982 18.585 3.31551 18.7243 3.7383 19.0393C2.90729 19.1533 2.26581 18.9886 1.68779 18.5605Z" fill="#FF8E33"/>
<path d="M20.0209 23.0132C20.0152 23.689 19.7532 24.3384 19.286 24.8353C18.8188 25.3321 18.1797 25.6408 17.4931 25.7012C16.7917 25.7677 16.0904 25.5736 15.5279 25.1574C14.9655 24.7412 14.5829 24.1332 14.4559 23.4536C14.4034 23.158 14.4559 22.9952 14.8055 22.9155C16.0868 22.6251 16.9032 21.6131 16.9032 20.3321C16.9128 18.3939 16.9032 16.4556 16.9084 14.5165C16.9084 13.0907 17.4328 12.3264 18.7972 11.766C19.1241 11.6872 19.1468 11.6992 19.1468 11.9374C18.1959 12.7463 18.3794 13.8139 18.4957 14.8404C18.6941 16.5979 19.1949 18.2996 19.59 20.0193C19.8198 21.0004 20.0331 21.991 20.0209 23.0132Z" fill="#FF8E33"/>
<path d="M18.0002 4.1885e-05C16.496 0.00863694 15.3471 1.51621 15.6394 3.12177C15.8863 4.47291 16.3625 5.75529 16.8152 7.04025C17.1713 8.03985 17.5593 9.02742 17.933 10.021H18.0581C18.3252 9.31965 18.5982 8.62174 18.8568 7.9178C19.4204 6.38445 19.9982 4.85367 20.34 3.24811C20.702 1.58325 19.5413 -0.00941267 18.0002 4.1885e-05ZM18.4 2.65849C18.1211 2.40064 17.8549 2.42642 17.587 2.66794C17.3796 2.85446 17.1738 3.04269 16.8925 3.29882C16.893 2.9237 16.9774 2.55368 17.1393 2.21713C17.3012 1.88057 17.5362 1.58642 17.8264 1.3572C17.8512 1.33174 17.8809 1.31171 17.9135 1.29831C17.9462 1.2849 17.9811 1.27841 18.0163 1.27921C18.0514 1.28001 18.0861 1.2881 18.1181 1.30298C18.1501 1.31786 18.1789 1.33923 18.2026 1.3658C18.7409 1.85829 19.0928 2.44533 19.1121 3.28507C18.8417 3.04784 18.615 2.86047 18.4 2.65849Z" fill="#FF8E33"/>
<path d="M18.2881 11.4316C18.2959 11.614 18.1775 11.6791 18.0233 11.7227C17.8574 11.6975 17.7139 11.6402 17.7119 11.4374C17.7088 11.4012 17.7133 11.3647 17.7252 11.3303C17.7371 11.296 17.7562 11.2645 17.7811 11.238C17.806 11.2116 17.8362 11.1906 17.8698 11.1767C17.9033 11.1627 17.9394 11.1559 17.9758 11.1569C18.1581 11.1433 18.2804 11.2297 18.2881 11.4316Z" fill="#FF8E33"/>
<path d="M18.7846 11.5338C18.6118 11.508 18.4788 11.4258 18.4817 11.2376C18.4801 11.2016 18.486 11.1657 18.4993 11.1322C18.5125 11.0986 18.5326 11.0681 18.5585 11.0427C18.5843 11.0173 18.6153 10.9974 18.6494 10.9844C18.6835 10.9714 18.7199 10.9655 18.7564 10.9671C18.9224 10.9595 19.0419 11.0283 19.0574 11.2012C19.0729 11.3742 18.9739 11.4956 18.7846 11.5338Z" fill="#FF8E33"/>
<path d="M17.518 11.836C17.5081 12.0285 17.4254 12.0826 17.3195 12.1007C17.2017 12.0515 17.1209 11.9583 17.1355 11.7518C17.15 11.5452 17.2526 11.5262 17.3565 11.5352C17.475 11.5452 17.526 11.6515 17.518 11.836Z" fill="#FF8E33"/>
<path d="M14.4384 21.7436C14.1685 21.6914 14.0006 21.6111 13.8608 21.4467L14.0954 21.3655C14.2472 21.4013 14.2922 21.5618 14.4384 21.7436Z" fill="#FF8E33"/>
<path d="M22.1391 21.4672C21.9895 21.6158 21.7979 21.6743 21.5615 21.7436C21.6096 21.5846 21.7154 21.4496 21.8579 21.3655L22.1391 21.4672Z" fill="#FF8E33"/>
<path d="M15.3202 19.4737C15.2765 19.4688 15.2451 19.3732 15.2085 19.3189C15.3568 19.1245 15.1553 18.9153 15.2364 18.7185C15.3743 18.903 15.3734 19.1204 15.3961 19.3312C15.4013 19.3905 15.4205 19.4861 15.3202 19.4737Z" fill="#FF8E33"/>
<path d="M19.0585 11.9115C19.0474 11.6955 18.935 11.8009 18.8662 11.7599C19.0479 11.6917 19.0609 11.7024 19.0585 11.9115Z" fill="#FF8E33"/>
<path d="M4.00841 11.6948C3.90957 11.7616 3.76168 11.6948 3.65771 11.6291C3.7485 11.6174 3.87736 11.6473 3.87224 11.5334C3.95716 11.5744 4.11164 11.6255 4.00841 11.6948Z" fill="#FF8E33"/>
</svg>
