<svg width="24" height="22" viewBox="0 0 24 22" fill="none" xmlns="http://www.w3.org/2000/svg">
<path d="M2.13357 16.9209H2.91285V19.7265C2.91285 19.9208 3.07025 20.0782 3.2645 20.0782H4.72098C4.91523 20.0782 5.07264 19.9208 5.07264 19.7265V16.9209H5.85186C6.20211 16.8315 6.28501 16.6314 6.10056 16.3205L4.24146 14.4614C4.07566 14.3241 3.90987 14.3241 3.74412 14.4614L1.88488 16.3206C1.55263 16.7082 1.82224 16.9192 2.13357 16.9209ZM3.99272 15.2073L5.00287 16.2175H4.72093C4.52667 16.2175 4.36927 16.3749 4.36927 16.5692V19.3749H3.61616V16.5692C3.61616 16.3749 3.45876 16.2175 3.2645 16.2175H2.98252L3.99272 15.2073Z" fill="white"/>
<path d="M8.72607 13.9015V19.7272C8.72607 19.9215 8.88348 20.0789 9.07773 20.0789H22.1919C22.3862 20.0789 22.5436 19.9215 22.5436 19.7272V13.9015C22.5436 13.7072 22.3862 13.5498 22.1919 13.5498H9.07773C8.88348 13.5498 8.72607 13.7073 8.72607 13.9015ZM9.42939 14.2531H21.8403V19.3756H9.42939V14.2531Z" fill="white"/>
<path d="M10.5401 15.0059C10.3459 15.0059 10.1885 15.1633 10.1885 15.3575V18.2704C10.1885 18.4647 10.3459 18.6221 10.5401 18.6221C10.7344 18.6221 10.8918 18.4647 10.8918 18.2704V15.3575C10.8918 15.1633 10.7343 15.0059 10.5401 15.0059Z" fill="white"/>
<path d="M14.9098 15.0059C14.7155 15.0059 14.5581 15.1633 14.5581 15.3575V18.2704C14.5581 18.4647 14.7155 18.6221 14.9098 18.6221C15.104 18.6221 15.2614 18.4647 15.2614 18.2704V15.3575C15.2614 15.1633 15.104 15.0059 14.9098 15.0059Z" fill="white"/>
<path d="M20.7354 15.0059C20.5412 15.0059 20.3838 15.1633 20.3838 15.3575V18.2704C20.3838 18.4647 20.5412 18.6221 20.7354 18.6221C20.9297 18.6221 21.0871 18.4647 21.0871 18.2704V15.3575C21.0871 15.1633 20.9297 15.0059 20.7354 15.0059Z" fill="white"/>
<path d="M11.9967 15.0059C11.8024 15.0059 11.645 15.1633 11.645 15.3575V16.814C11.645 17.0082 11.8024 17.1656 11.9967 17.1656C12.1909 17.1656 12.3483 17.0082 12.3483 16.814V15.3575C12.3483 15.1633 12.1909 15.0059 11.9967 15.0059Z" fill="white"/>
<path d="M13.4532 15.0059C13.259 15.0059 13.1016 15.1633 13.1016 15.3575V16.814C13.1016 17.0082 13.259 17.1656 13.4532 17.1656C13.6475 17.1656 13.8049 17.0082 13.8049 16.814V15.3575C13.8049 15.1633 13.6474 15.0059 13.4532 15.0059Z" fill="white"/>
<path d="M16.3663 15.0059C16.172 15.0059 16.0146 15.1633 16.0146 15.3575V16.814C16.0146 17.0082 16.172 17.1656 16.3663 17.1656C16.5606 17.1656 16.7179 17.0082 16.7179 16.814V15.3575C16.7179 15.1633 16.5605 15.0059 16.3663 15.0059Z" fill="white"/>
<path d="M17.8165 15.0059C17.6222 15.0059 17.4648 15.1633 17.4648 15.3575V16.814C17.4648 17.0082 17.6222 17.1656 17.8165 17.1656C18.0107 17.1656 18.1681 17.0082 18.1681 16.814V15.3575C18.1681 15.1633 18.0107 15.0059 17.8165 15.0059Z" fill="white"/>
<path d="M19.2789 15.0059C19.0846 15.0059 18.9272 15.1633 18.9272 15.3575V16.814C18.9272 17.0082 19.0846 17.1656 19.2789 17.1656C19.4731 17.1656 19.6305 17.0082 19.6305 16.814V15.3575C19.6305 15.1633 19.4731 15.0059 19.2789 15.0059Z" fill="white"/>
<path d="M15.3139 2.6542C14.7806 3.18755 14.4868 3.89663 14.4868 4.65087C14.4868 5.40506 14.7806 6.11415 15.3139 6.64749C15.8643 7.19796 16.5874 7.47319 17.3105 7.47319C18.0336 7.47319 18.7567 7.19796 19.3072 6.64749C20.4081 5.54657 20.4081 3.75513 19.3072 2.65425C18.7738 2.1209 18.0647 1.82715 17.3105 1.82715C16.5563 1.8272 15.8472 2.1209 15.3139 2.6542ZM18.8098 6.15016C17.9831 6.97698 16.6379 6.97688 15.8112 6.15016C15.4107 5.74969 15.1902 5.21728 15.1902 4.65087C15.1902 4.08447 15.4107 3.55201 15.8113 3.15149C16.2117 2.75103 16.7441 2.53047 17.3106 2.53047C17.8769 2.53047 18.4094 2.75103 18.8099 3.15149V3.15154C19.6365 3.97827 19.6365 5.32343 18.8098 6.15016Z" fill="white"/>
<path d="M23.6484 12.0929H18.1681V8.76157C18.8349 8.62363 19.4741 8.3228 20.022 7.85931L20.5031 8.34043L20.2571 8.5864C20.1198 8.72378 20.1198 8.9464 20.2571 9.08374L22.1979 11.0245C22.6935 11.435 23.189 11.435 23.6845 11.0245C24.0046 10.5856 24.125 9.97836 23.6846 9.53785L21.7438 7.59707C21.6064 7.45978 21.3838 7.45978 21.2465 7.59707L21.0005 7.84304L20.52 7.36253C21.7464 5.91497 21.8585 3.81463 20.7525 2.23896C20.6409 2.07996 20.4216 2.04166 20.2626 2.15316C20.1036 2.26475 20.0652 2.48409 20.1768 2.64299C21.1534 4.03425 20.9893 5.91731 19.7871 7.1219C18.4261 8.45586 16.196 8.48315 14.8369 7.12448C13.4728 5.76033 13.4728 3.54075 14.8369 2.17674C15.9963 1.01772 17.7752 0.814227 19.1628 1.68184C19.3274 1.78485 19.5444 1.73487 19.6474 1.57011C19.7504 1.40539 19.7003 1.18844 19.5357 1.08547C17.2581 -0.338511 14.1411 0.79519 13.3156 3.35437H4.53405C4.3398 3.35437 4.1824 3.51178 4.1824 3.70603C4.1824 3.90029 4.3398 4.05769 4.53405 4.05769H6.91713V8.52948C6.96674 8.8176 7.13286 8.92413 7.41541 8.84906L9.07758 8.08653L10.7398 8.84906C10.9523 8.94678 11.2381 8.78947 11.2381 8.52948V4.05769H13.1527C12.9741 5.3216 13.3695 6.65176 14.3395 7.62187C15.1506 8.43265 16.3192 8.88812 17.4647 8.84649V12.0928H11.7754C11.5811 12.0928 11.4237 12.2502 11.4237 12.4445C11.4237 12.6387 11.5811 12.7961 11.7754 12.7961H23.2966V20.8318H7.9789V12.7962H10.2426C10.4369 12.7962 10.5943 12.6388 10.5943 12.4445C10.5943 12.2503 10.4369 12.0929 10.2426 12.0929H7.62724C7.43299 12.0929 7.27559 12.2503 7.27559 12.4445V20.8319H0.703318V4.05774H3.00181C3.19606 4.05774 3.35347 3.90034 3.35347 3.70608C3.35347 3.51182 3.19606 3.35442 3.00181 3.35442H0.351659C0.157402 3.35442 0 3.51182 0 3.70608V21.1835C0 21.3778 0.157402 21.5352 0.351659 21.5352H7.62724H23.6484C23.8426 21.5352 24 21.3778 24 21.1835V12.4445C24 12.2503 23.8426 12.0929 23.6484 12.0929ZM23.1872 10.0352C23.4961 10.3438 23.0194 10.8516 22.6953 10.5271L21.0031 8.83505C21.1671 8.67103 21.3312 8.50707 21.4951 8.34305L23.1872 10.0352ZM10.5348 7.98127L9.22425 7.38007C9.12648 7.33735 9.02877 7.33735 8.93101 7.38007L7.62049 7.98127V4.05769H10.5348V7.98127Z" fill="white"/>
</svg>
