<svg width="227" height="195" viewBox="0 0 227 195" fill="none" xmlns="http://www.w3.org/2000/svg">
<path d="M200.911 53.4555C200.121 46.3598 193.522 41.0056 186.741 42.1561C177.726 43.6782 169.129 46.521 161.166 51.1096C145.18 60.3139 134.797 74.1114 128.749 91.4231C127.465 95.103 126.364 98.8724 126 103C126.933 102.454 127.275 101.702 127.732 101.057C134.639 91.171 143.708 83.0178 154.239 77.2272C165.27 71.1612 177.1 68.2378 189.627 67.7499C196.71 67.4723 201.737 60.9049 200.911 53.4555ZM192.669 55.8461C191.408 58.7649 187.247 61.5987 183.943 61.7465C188.481 54.8254 188.455 55.7476 182.415 50.5769C184.827 48.9653 191.377 52.0946 192.629 53.9569C193.055 54.5881 192.953 55.188 192.669 55.8461Z" fill="#FF8E33"/>
<path d="M96.8785 100.838C96.6338 100.155 96.5938 99.4313 96.3669 98.7526C95.4772 97.2479 95.7219 95.4797 95.237 93.8902C92.762 85.5574 88.8962 77.7065 83.8042 70.6719C71.9799 54.5486 55.8405 45.5426 36.4047 42.1581C30.7149 41.1624 24.6516 44.98 22.7342 50.4944C20.7146 56.2989 22.9967 62.8313 27.9213 65.9256C30.7283 67.7116 33.8022 67.7116 36.8895 67.9081C54.6349 69.06 70.107 75.6951 83.4527 87.4025C88.3461 91.7023 92.3498 96.7791 96.229 101.999C97.1721 102.034 97.0565 101.329 96.8785 100.838ZM36.6627 57.8617C37.2721 58.7547 37.6503 59.8397 38.4822 60.6032C38.9982 60.9649 39.9368 61.4159 39.3096 62.0276C38.6823 62.6393 37.8104 62.0276 37.1787 61.4471C34.5307 60.4913 32.2575 58.7089 30.6927 56.3614C29.8786 55.2139 29.803 54.2361 30.9907 53.2939C33.8022 51.0614 36.9296 49.8469 40.9511 50.2399C39.5854 51.4499 38.4999 52.4724 37.3389 53.4324C35.7463 54.7272 35.506 56.1471 36.6627 57.8617Z" fill="#FF8E33"/>
<path d="M165.194 19.8616C160.612 11.6534 149.276 10.5795 142.837 17.8876C132.3 29.7023 125.403 44.274 122.966 59.8689C121.844 66.8295 121.561 73.8523 122.863 81C123.846 78.7719 124.761 76.5438 125.82 74.3603C133.588 58.4073 145.256 46.0237 160.531 36.9287C166.953 33.1053 168.766 26.2785 165.194 19.8616ZM153.499 34.5224C153.162 31.7239 153.795 28.9121 151.96 27.3613C150.124 25.8106 147.405 26.6573 144.493 26.6974C147.769 23.4934 151.197 22.2412 155.177 22.3838C155.384 22.3761 155.591 22.4095 155.784 22.4821C155.978 22.5547 156.155 22.6651 156.305 22.8067C156.455 22.9482 156.575 23.1182 156.658 23.3065C156.741 23.4949 156.786 23.6978 156.788 23.9034C157.242 27.7357 156.241 31.1268 153.499 34.5357V34.5224Z" fill="#FF8E33"/>
<path d="M92.8818 37.2314C89.4943 30.0326 85.0373 23.3805 79.6602 17.4979C75.6101 13.1157 70.4573 12.0022 64.8951 13.8669C59.8008 15.5751 56.8397 19.3671 56.1332 24.7062C55.3547 30.582 58.0323 34.5439 63.0365 37.5354C77.3381 46.0316 88.4221 57.6132 95.9914 72.4144C97.436 75.2405 98.7365 78.1381 100.1 81L100.55 80.9732C100.672 79.5735 100.847 78.1739 100.906 76.7698C101.56 63.134 98.8032 49.5496 92.8818 37.2314ZM73.1754 26.7587C71.1413 26.6827 70.1558 27.7291 69.9218 29.6161C69.7373 31.0828 69.6068 32.5585 69.3907 34.5797C66.6006 31.217 65.6736 27.7738 66.0831 23.9416C66.0905 23.7356 66.1394 23.5331 66.2271 23.3463C66.3148 23.1594 66.4393 22.992 66.5934 22.8539C66.7475 22.7159 66.9279 22.61 67.124 22.5425C67.32 22.4751 67.5277 22.4476 67.7347 22.4615C71.7264 22.3407 75.169 23.566 78.4317 26.7677C76.3256 26.7677 74.755 26.8169 73.1754 26.7587Z" fill="#FF8E33"/>
<path d="M197.585 85.3234C192.085 83.3981 186.398 83.9305 180.867 84.6935C160.666 87.4793 145.053 98.2545 132 113.275C132.129 114.384 132.815 113.932 133.398 113.776C134.187 112.703 135.518 112.889 136.574 112.446C152.423 105.632 168.878 103.751 185.904 106.475C189.8 107.1 193.648 108.373 197.678 106.683C199.834 105.783 201.676 104.272 202.977 102.339C204.279 100.405 204.982 98.1337 205 95.8058C205.013 93.5071 204.306 91.2616 202.977 89.3825C201.647 87.5034 199.763 86.0844 197.585 85.3234ZM196.347 98.2723C193.341 100.557 189.983 101.378 185.712 100.801C192.53 95.9833 192.156 96.8616 188.429 90.2119C191.163 89.9857 195.456 93.6144 196.783 96.5023C196.951 96.7967 196.999 97.1436 196.919 97.4724C196.839 97.8012 196.636 98.0872 196.351 98.2723H196.347Z" fill="#FF8E33"/>
<path d="M75.3237 98.4015C61.4517 88.1291 46.114 82.6892 28.6648 84.2702C26.0628 84.5114 23.6141 85.6109 21.7021 87.3966C19.8179 89.1019 18.5661 91.3973 18.1511 93.908C17.736 96.4186 18.1822 98.9961 19.4168 101.22C22.054 106.097 27.6224 108.406 33.2532 107.155C43.4011 104.895 53.6515 104.672 63.9375 106.043C72.9271 107.24 81.4713 109.978 89.6992 113.752C90.2204 113.944 90.8084 114.346 91 113.377C86.4543 107.716 81.1833 102.68 75.3237 98.4015ZM26.7671 98.1648C25.8405 97.4681 26.0588 96.6552 26.5711 95.8156C28.4198 92.7874 31.0259 90.7508 34.9371 89.6387C33.7254 92.0371 31.5204 93.8057 32.1039 96.1371C32.6474 98.2943 35.2222 99.0313 37.4184 100.697C33.1018 101.3 29.7696 100.429 26.7671 98.1648Z" fill="#FF8E33"/>
<path d="M121.997 121.716C121.968 125.29 120.607 128.725 118.18 131.353C115.753 133.98 112.434 135.613 108.867 135.932C105.224 136.284 101.581 135.258 98.6591 133.056C95.7375 130.855 93.7501 127.639 93.0903 124.045C92.8179 122.482 93.0903 121.621 94.9063 121.199C101.562 119.663 105.803 114.311 105.803 107.536C105.853 97.2846 105.803 87.0335 105.83 76.7779C105.83 69.2369 108.554 65.1944 115.641 62.2306C117.339 61.8137 117.457 61.8771 117.457 63.137C112.518 67.415 113.471 73.0617 114.075 78.4909C115.105 87.7858 117.707 96.786 119.759 105.881C120.953 111.07 122.061 116.309 121.997 121.716Z" fill="#FF8E33"/>
<path d="M111.5 0.000221525C103.687 0.0456798 97.719 8.01906 99.2372 16.5107C100.52 23.6567 102.993 30.4391 105.345 37.2351C107.194 42.5219 109.21 47.745 111.151 53H111.801C113.188 49.2906 114.606 45.5994 115.95 41.8764C118.877 33.7666 121.879 25.6705 123.654 17.1789C125.534 8.37362 119.505 -0.0497826 111.5 0.000221525ZM113.577 14.0605C112.128 12.6967 110.745 12.8331 109.354 14.1105C108.276 15.0969 107.207 16.0925 105.746 17.4471C105.749 15.4631 106.187 13.5061 107.028 11.7261C107.869 9.94615 109.09 8.39038 110.597 7.17807C110.726 7.04345 110.88 6.93749 111.05 6.8666C111.219 6.79571 111.401 6.76136 111.584 6.76561C111.766 6.76986 111.946 6.81262 112.113 6.89132C112.279 6.97003 112.428 7.08305 112.552 7.22355C115.348 9.82831 117.176 12.9331 117.276 17.3744C115.871 16.1197 114.693 15.1287 113.577 14.0605Z" fill="#FF8E33"/>
<path d="M123.582 193.173C121.657 190.153 119.866 187.044 117.981 183.997C117.29 182.887 117.237 182.25 118.698 181.74C120.619 181.068 121.818 179.529 122.477 177.588C124.768 171.03 121.515 165.637 114.674 165.217C109.354 164.888 103.98 165.109 98.6638 165.001C97.1577 164.974 96.9928 165.768 97.0017 166.968C97.0285 171.247 97.0017 175.544 97.0017 179.809C97.0017 184.163 97.0017 188.525 97.0017 192.897C97.0017 193.714 96.9081 194.495 98.1024 194.703C102.434 195.515 103.334 194.834 103.347 190.51C103.347 189.91 103.347 189.309 103.347 188.704C103.347 182.955 103.347 182.991 109.109 183.031C110.299 183.031 111.016 183.37 111.578 184.453C112.638 186.506 114.122 188.384 114.906 190.528C116.297 194.328 118.917 195.321 122.482 194.676C122.556 194.669 122.63 194.669 122.704 194.676C123.974 194.716 124.398 194.445 123.582 193.173ZM114.153 177.457C112.224 177.909 110.316 177.697 108.65 177.796C103.245 177.796 103.303 177.796 103.303 172.569C103.303 170.764 103.891 170.182 105.62 170.286C108.423 170.453 111.239 170.123 114.042 170.701C115.953 171.098 116.595 172.235 116.6 174.041C116.604 175.846 116.105 177.011 114.153 177.457Z" fill="#FF8E33"/>
<path d="M92.9923 180.263C92.9923 171.461 89.4836 166.582 82.6594 165.363C79.7114 164.851 76.6974 164.881 73.7596 165.45C71.3553 165.881 69.1469 167.078 67.4517 168.869C65.7565 170.661 64.6619 172.954 64.3253 175.42C63.9171 178.207 63.893 181.038 64.2534 183.832C65.0576 189.751 68.1754 193.453 73.9169 194.543C77.5199 195.289 81.2475 195.119 84.7709 194.049C88.6884 192.821 91.0335 190.131 92.1791 186.223C92.776 184.297 93.0509 182.282 92.9923 180.263ZM85.3055 185.724C84.1554 188.858 81.6396 190.008 78.6026 190.072C75.5656 190.136 72.933 189.068 71.7021 186.017C70.2486 182.55 70.122 178.653 71.3471 175.095C72.5826 171.429 74.6222 170.055 78.4095 170.027C82.7987 170 85.3235 172.318 85.9704 176.744C86.4197 179.804 86.3568 182.81 85.3055 185.724Z" fill="#FF8E33"/>
<path d="M59.2445 174.207C58.0902 169.789 55.4325 166.927 51.1105 165.733C48.6606 165.065 46.1133 164.851 43.5896 165.102C36.8784 165.738 32.789 168.925 31.5721 174.673C30.8093 178.176 30.8093 181.807 31.5721 185.31C31.9494 187.172 32.7374 188.923 33.8762 190.427C36.9544 194.383 41.2719 194.822 45.7863 195C46.8377 194.913 47.9563 194.89 49.0569 194.726C54.0232 193.98 57.6875 191.525 59.1147 186.371C60.2493 182.405 60.2942 178.197 59.2445 174.207ZM52.5825 184.971C51.549 188.333 49.0793 190.102 45.5403 190.102C41.791 190.102 39.4241 188.387 38.3817 184.857C37.3254 181.582 37.3758 178.039 38.5248 174.797C39.7507 171.371 42.0728 169.899 46.0056 170.059C49.5088 170.205 51.8219 171.971 52.6809 175.309C52.9679 176.604 53.1889 177.914 53.3431 179.232C53.3872 181.174 53.1306 183.111 52.5825 184.971Z" fill="#FF8E33"/>
<path d="M18.5395 165.336C12.9449 164.73 7.31866 165.159 1.71047 165.013C0.187923 164.976 0.0212623 165.788 0.0302715 166.995C0.0572989 171.311 0.0302715 175.627 0.0302715 179.943C0.0302715 183.424 -0.0327925 186.906 0.0302715 190.388C0.142886 195.766 -1.06435 194.877 4.91772 195C6.0754 195 6.52134 194.585 6.48981 193.405C6.43125 191.126 6.55739 188.848 6.44478 186.569C6.3682 184.951 6.98983 184.5 8.52589 184.527C11.8908 184.591 15.2828 184.792 18.6206 184.377C24.1162 183.689 27.0577 180.275 26.9991 174.807C26.9406 169.119 24.1477 165.938 18.5395 165.336ZM17.4314 178.667C15.5125 179.391 13.58 179.063 11.9088 179.2C6.4673 179.2 6.46733 179.2 6.47183 174.009C6.50339 173.554 6.50339 173.097 6.47183 172.642C6.21507 170.819 7.00334 170.236 8.75112 170.363C11.5079 170.536 14.2827 170.213 17.0305 170.874C18.936 171.329 19.8414 172.459 19.909 174.364C19.9765 176.269 19.5216 177.874 17.4314 178.667Z" fill="#FF8E33"/>
<path d="M198.466 194.448C198.194 195.044 197.561 194.744 197.054 194.812C196.909 194.812 196.751 194.812 196.601 194.812C192.528 195.558 189.713 194.079 187.469 190.494C185.337 187.077 182.549 184.074 180.028 180.862C179.196 181.481 179.49 182.227 179.485 182.832C179.449 186.162 179.422 189.493 179.485 192.842C179.512 194.207 179.187 194.93 177.616 194.875C172.24 194.684 173.091 195.676 173.045 190.357C172.986 182.714 173.095 175.065 173 167.422C173 165.515 173.575 164.937 175.439 165.033C179.784 165.247 179.449 164.218 179.476 169.219C179.476 172.235 179.476 175.256 179.476 178.273C180.63 178.51 180.879 177.595 181.286 177.099C184.111 173.773 186.971 170.461 189.632 167.003C190.84 165.433 192.171 164.86 194.053 165.028C195.465 165.156 196.896 165.056 199 165.056C195.176 169.678 191.84 173.828 188.351 177.845C187.22 179.151 186.993 179.943 188.247 181.381C191.542 185.198 194.628 189.193 197.751 193.146C198.09 193.506 198.742 193.838 198.466 194.448Z" fill="#FF8E33"/>
<path d="M226.604 192.704C223.157 184.924 219.584 177.184 216.502 169.253C215.213 165.933 213.573 164.639 210.121 165.085C208.548 165.29 207.629 165.541 206.967 167.185C204.344 173.681 201.654 180.159 198.702 186.504C197.724 188.609 197.63 190.148 199.311 191.67C200.185 192.463 200.662 194.257 201.753 194.052C202.992 193.825 203.024 191.989 203.362 190.832C203.992 188.659 204.984 187.447 207.417 187.843C208.661 188.044 209.959 187.88 211.229 187.88C212.35 187.962 213.476 187.953 214.595 187.853C216.934 187.475 218.038 188.486 218.8 190.686C220.327 195.105 220.444 194.986 225.077 195C227.023 195.009 227.411 194.522 226.604 192.704ZM214.055 182.55C212.117 182.523 210.179 182.514 208.242 182.55C207.12 182.578 206.714 182.168 207.147 181.074C208.35 178.009 209.562 174.947 211.013 171.271C212.536 174.979 213.82 178.077 215.069 181.188C215.461 182.177 215.037 182.564 214.055 182.55Z" fill="#FF8E33"/>
<path d="M156.949 168.95C153.456 176.955 149.922 184.947 146.534 192.998C145.919 194.462 145.111 194.688 143.67 194.897C140.058 195.409 138.346 194.018 136.982 190.674C133.709 182.669 129.923 174.862 126.329 166.988C125.681 165.57 125.925 165.044 127.651 165.017C132.755 164.949 132.782 164.867 134.724 169.443C136.808 174.368 138.823 179.316 140.888 184.245C141.201 184.988 141.623 185.686 142.265 186.927C145.226 180.068 148.081 173.761 150.638 167.341C151.418 165.379 152.474 164.972 154.37 165.012C158.639 165.112 158.634 165.026 156.949 168.95Z" fill="#FF8E33"/>
<path d="M167.993 192.806C168.02 194.485 167.516 195.018 166.054 195C162.004 194.949 162 195 162 190.338C162 182.696 162.043 175.058 162 167.42C162 165.754 162.236 164.944 163.895 165.003C168.623 165.167 167.914 164.27 167.981 169.664C168.024 173.064 167.981 176.469 167.981 179.874C167.969 184.184 167.918 188.495 167.993 192.806Z" fill="#FF8E33"/>
<path d="M112.998 60.46C113.038 61.4251 112.424 61.769 111.622 62C110.761 61.8665 110.015 61.5637 110.005 60.4908C109.989 60.2992 110.012 60.1062 110.074 59.9245C110.136 59.7428 110.235 59.5765 110.364 59.4364C110.494 59.2964 110.651 59.1858 110.825 59.1118C110.999 59.0379 111.187 59.0022 111.376 59.0073C112.323 58.9354 112.958 59.3923 112.998 60.46Z" fill="#FF8E33"/>
<path d="M115.575 61C114.677 60.8635 113.986 60.4289 114.001 59.4333C113.993 59.2432 114.024 59.0533 114.093 58.8759C114.161 58.6985 114.266 58.5373 114.4 58.4028C114.535 58.2682 114.695 58.1631 114.872 58.0943C115.049 58.0255 115.239 57.9944 115.428 58.003C116.291 57.9626 116.911 58.3265 116.992 59.2412C117.072 60.156 116.558 60.7978 115.575 61Z" fill="#FF8E33"/>
<path d="M108.996 62.6001C108.944 63.6182 108.515 63.9046 107.965 64C107.353 63.7402 106.933 63.247 107.009 62.1547C107.084 61.0623 107.617 60.9616 108.157 61.0093C108.772 61.0623 109.037 61.6244 108.996 62.6001Z" fill="#FF8E33"/>
<path d="M93 115C91.598 114.724 90.726 114.299 90 113.43L91.2183 113C92.0069 113.189 92.2406 114.038 93 115Z" fill="#FF8E33"/>
<path d="M133 113.538C132.223 114.324 131.228 114.633 130 115C130.25 114.159 130.799 113.445 131.54 113L133 113.538Z" fill="#FF8E33"/>
<path d="M97.5801 102.994C97.3535 102.968 97.1903 102.463 97 102.175C97.7704 101.147 96.7236 100.041 97.145 99C97.861 99.9757 97.8565 101.126 97.9743 102.241C98.0015 102.554 98.1012 103.06 97.5801 102.994Z" fill="#FF8E33"/>
<path d="M116.999 63C116.941 61.8578 116.357 62.4149 116 62.1985C116.944 61.8378 117.011 61.8939 116.999 63Z" fill="#FF8E33"/>
<path d="M38.8217 61.8536C38.3083 62.2068 37.54 61.8536 37 61.5057C37.4716 61.4442 38.1409 61.602 38.1143 61C38.5555 61.2167 39.3579 61.487 38.8217 61.8536Z" fill="#FF8E33"/>
</svg>
